<?xml version="1.0" encoding="utf-8"?>
<!-- Generator: Adobe Illustrator 15.0.0, SVG Export Plug-In . SVG Version: 6.00 Build 0)  -->
<!DOCTYPE svg PUBLIC "-//W3C//DTD SVG 1.1//EN" "http://www.w3.org/Graphics/SVG/1.1/DTD/svg11.dtd">
<svg version="1.1" id="Layer_1" xmlns="http://www.w3.org/2000/svg" xmlns:xlink="http://www.w3.org/1999/xlink" x="0px" y="0px"
	 width="708.66px" height="331px" viewBox="0 221.175 708.66 331" enable-background="new 0 221.175 708.66 331"
	 xml:space="preserve">
<g>
	<g>
		<path fill="#FFFFFF" stroke="#CED5DC" stroke-width="0.9318" stroke-linejoin="round" stroke-miterlimit="10" d="M376.871,229.51
			h-30.148c-0.516,0-0.932,0.419-0.932,0.932c0,9.759,0,19.841,0.164,29.804c-1.298,0.06-2.251,0.238-3.158,0.582
			c-0.363,0.139-0.601,0.483-0.601,0.872v130.262l-0.27,16.395l-0.27,16.416c0,0.822-0.128,2.027-0.268,3.318
			c-0.42,3.889-0.648,6.816,0.264,8.301c-0.007,0.625-0.022,1.289-0.042,1.973c-0.083,3.102-0.177,6.609,0.644,8.824
			c0.138,0.363,0.484,0.609,0.871,0.609H706.46c0.512,0,0.932-0.422,0.932-0.932v-30.152c0-0.24-0.099-0.482-0.271-0.66
			c-0.176-0.178-0.405-0.271-0.659-0.271c0,0,0,0-0.005,0h-0.002c-2.553,0-4.903-0.15-6.701-0.408
			c-0.232-1.32-0.631-2.395-1.021-3.436c-0.467-1.23-0.903-2.402-1.021-3.902c-0.028-0.277-0.159-0.531-0.386-0.691
			c-0.159-0.111-0.354-0.182-0.542-0.182c-0.077,0-0.148,0.008-0.229,0.037l-1.002,0.24v-1.369l1.009,0.244
			c0.076,0.023,0.145,0.031,0.222,0.031c0.207,0,0.405-0.076,0.572-0.207c0.229-0.174,0.359-0.443,0.359-0.725v-4.303
			c0-0.518-0.419-0.932-0.933-0.932h-0.775c-0.027-0.045-0.051-0.088-0.079-0.129c0.036-0.309,0.287-1.008,0.48-1.535
			c0.669-1.816,1.651-4.547,0.116-6.482c-0.164-0.48-0.323-0.961-0.483-1.441c-0.106-0.315-0.376-0.553-0.704-0.621l-0.533-0.105
			l-1.44-0.291c-0.041-0.16-0.125-0.313-0.244-0.431c-0.179-0.174-0.408-0.265-0.657-0.265c-0.007,0-0.007,0-0.01,0
			c-5.528,0.035-6.68,2.529-7.898,5.168c-0.409,0.906-0.848,1.838-1.48,2.777c-0.175,0.254-0.509,0.523-0.884,0.814
			c-0.314,0.24-0.675,0.518-1.011,0.852c0.19-1.469,0.468-2.9,0.692-3.229c0.153-0.172,0.219-0.368,0.227-0.598
			c0.021-2.727-0.347-3.701-1.187-5.289c-0.153-0.297-0.456-0.486-0.794-0.496l-0.962-0.034c-0.604-0.029-1.271-0.06-1.914-0.06
			c-1.938,0-3.044,0.26-3.709,0.883c-0.816,1.096-0.36,2.336,0.171,3.785c0.411,1.135,0.877,2.401,0.778,3.521
			c-0.406,0.096-0.702,0.467-0.702,0.902v1.035l-0.255,0.131l-0.311,0.152c-0.316,0.16-0.519,0.479-0.519,0.838v2.146
			c0,0.383,0.227,0.701,0.541,0.852v0.232c0,0.381,0.229,0.699,0.542,0.848v0.23c0,0.438,0.296,0.799,0.702,0.902l0.167,0.854
			l0.229,1.121c0.077,0.412,0.426,0.719,0.857,0.744c0.131,0.338,0.244,0.668,0.362,0.988c0.229,0.682,0.467,1.361,0.858,1.998
			h-0.618c-0.473,0-0.858,0.35-0.925,0.799l-0.263,0.084l-0.71,0.238c-0.259,0.08-0.466,0.27-0.571,0.518l-0.152,0.379
			c-0.375,0.852-0.719,1.68-0.901,2.869l-0.052,0.006c-0.507,0.016-1.05,0.037-1.575,0.037c-1.271,0-1.85-0.139-2.108-0.258
			c0.199-0.049,0.452-0.078,0.881-0.113c0.32-0.021,0.599-0.215,0.746-0.496s0.142-0.621-0.018-0.895
			c-0.555-0.963-1.171-1.643-2.032-2.209v-2.406c0.201-0.092,0.361-0.252,0.453-0.451h0.771c0.518,0,0.934-0.416,0.934-0.932v-1.074
			c0-0.396-0.252-0.758-0.636-0.885l-0.38-0.123c-0.204-0.07-0.396-0.139-0.608-0.209v-0.396c0-0.375-0.223-0.699-0.535-0.85v-7.225
			c0-0.379-0.229-0.699-0.541-0.852v-0.771c0-0.379-0.229-0.699-0.542-0.846v-0.232c0-0.377-0.23-0.699-0.545-0.852v-0.766
			c0-0.371-0.222-0.703-0.537-0.852v-0.771c0-0.383-0.227-0.697-0.546-0.849v-0.768c0-0.38-0.221-0.698-0.535-0.853v-2.927
			c0-0.276-0.125-0.539-0.334-0.71l-1.621-1.343l-1.507-1.26c-0.822-1.312-0.867-3.096-0.853-5.285
			c0.004-0.412-0.264-0.778-0.664-0.897c-0.231-0.07-0.391-0.112-0.521-0.138c-0.051-0.049-0.096-0.104-0.169-0.168
			c-0.166-0.167-0.389-0.266-0.633-0.272c-0.276-0.007-0.537-0.012-0.787-0.012c-4.518,0-4.996,1.465-5.459,4.052
			c-0.103,0.567-0.219,1.189-0.4,1.887c-1.783,0.037-3.513,0.211-5.38,0.551c-0.377,0.064-0.677,0.355-0.749,0.724
			c-0.455,2.253-1.317,3.185-2.311,4.271c-0.507,0.554-1.067,1.168-1.6,1.979h-9.134l-0.097-0.207l-0.184-0.354
			c-0.096-0.195-0.249-0.35-0.436-0.432v-0.238c0-0.394-0.25-0.741-0.604-0.873c-0.072-0.182-0.197-0.342-0.367-0.444
			c-0.149-0.095-0.332-0.147-0.508-0.147c-0.13,0-0.261,0.028-0.385,0.076c-0.856,0.389-2.17,0.411-3.685,0.443h-0.016l-0.064-0.299
			l-0.327-1.631c-0.081-0.385-0.393-0.691-0.79-0.738c-0.703-1.595-2.262-2.49-4.655-2.669l-0.467-5.105
			c-0.039-0.388-0.309-0.716-0.691-0.817c-0.738-0.197-0.981-0.399-1.363-0.729c-0.178-0.15-0.376-0.317-0.634-0.495v-0.566
			c0-0.515-0.414-0.933-0.934-0.933h-1.077c-0.474,0-0.874,0.361-0.925,0.834c-0.173,1.637-0.497,1.774-2.028,2.428
			c-0.314,0.133-0.628,0.467-0.668,0.805l-0.247,2.515l-0.218,2.126l-2.254,0.29l-1.312,0.167c-0.36,0.044-0.655,0.283-0.771,0.634
			l-1.009,3.021l-0.391,1.172c-0.058,0-0.112,0-0.175,0c-2.541,0-4.31,0.355-5.545,2.094c-0.358-0.055-0.532-0.099-0.764-0.192
			l-0.255-15.149l-0.266-15.979l0.272-8.878l0.262-8.301c0.008-0.249-0.084-0.495-0.262-0.678c-0.091-0.097-0.211-0.176-0.335-0.225
			l-0.482-7.264c-0.025-0.352-0.233-0.646-0.547-0.782v-1.302c0-0.377-0.224-0.696-0.54-0.846v-0.776c0-0.376-0.226-0.7-0.545-0.846
			v-0.775c0-0.473-0.355-0.864-0.815-0.924c-0.325-0.99-0.581-2.146-0.852-3.358c-0.634-2.899-1.298-5.89-3.185-7.477v-0.082
			c0-0.515-0.412-0.932-0.934-0.932h-0.541c-0.344,0-0.655,0.186-0.816,0.487c-0.188,0.343-0.438,0.68-0.703,1.024
			c-0.785,1.063-1.771,2.387-1.562,4.354c0.006,0.061,0.018,0.121,0.034,0.178c-0.025,0.085-0.04,0.174-0.04,0.268v0.23
			c-0.314,0.149-0.546,0.469-0.546,0.847v0.502l-0.55,0.276c-0.312,0.157-0.519,0.48-0.519,0.839v0.775
			c-0.321,0.15-0.543,0.471-0.543,0.847v0.231c-0.32,0.149-0.543,0.47-0.543,0.844v0.772c-0.3,0.138-0.519,0.425-0.543,0.771
			c-0.162,2.073-0.323,4.135-0.48,6.199c-0.36,0.134-0.604,0.473-0.604,0.871v0.504l-0.551,0.276
			c-0.318,0.156-0.525,0.48-0.525,0.837v13.461v26.604c-0.317,0.149-0.543,0.47-0.543,0.846v4.442h-2.52l-0.394-5.254
			c0.081-0.049,0.161-0.112,0.232-0.184c0.176-0.196,0.259-0.458,0.233-0.719l-0.269-2.692l-0.265-2.689
			c-0.032-0.28-0.185-0.532-0.415-0.689l-1.172-0.775l-0.025-0.014v-8.22c0.44-0.469,0.826-1.265,0.504-2.322
			c-0.076-0.26-0.268-0.466-0.504-0.573v-0.233c0-0.354-0.199-0.673-0.52-0.833l-0.706-0.363l-0.809-2.685l-0.655-2.179v-5.244
			c0-0.376-0.229-0.7-0.546-0.846v-5.076c0-0.377-0.228-0.697-0.539-0.847v-5.073c0-0.45-0.319-0.823-0.739-0.913
			c-0.124-0.492-0.243-0.984-0.375-1.476c-0.069-0.251-0.232-0.462-0.457-0.586c-0.131-0.073-0.293-0.111-0.445-0.111
			c-0.094,0-0.195,0.015-0.286,0.048l-1.612,0.541c-0.32,0.108-0.576,0.387-0.634,0.725c-0.053,0.264-0.103,0.401-0.132,0.465
			c-0.257,0.168-0.418,0.459-0.418,0.775v4.529c-0.323,0.148-0.543,0.469-0.543,0.846v6.693c-0.32,0.149-0.543,0.47-0.543,0.843
			v4.532c-0.318,0.149-0.543,0.469-0.543,0.846v1.309c-0.247,0.117-0.435,0.334-0.512,0.615l-0.377,1.469
			c-0.417,0.089-0.734,0.463-0.734,0.913v0.578l-1.204,0.8c-0.179,0.12-0.309,0.303-0.37,0.509
			c-0.347,1.144,0.002,1.959,1.028,2.426v7.764c-0.319,0.149-0.539,0.469-0.539,0.842v0.574l-0.377,0.251l-0.834,0.543
			c-0.251,0.173-0.411,0.462-0.411,0.774v10.729l-1.632,0.812c-0.415,0.208-0.628,0.702-0.479,1.139l0.646,1.943l0.432,1.297
			c0.08,0.246,0.262,0.443,0.492,0.549v11.752c-0.236-0.145-0.521-0.297-0.988-0.441c-0.232-0.885-0.593-1.689-0.924-2.406
			c-0.203-0.455-0.396-0.877-0.543-1.307c-0.175-9.097-0.351-18.206-0.531-27.305v-58.1c0-0.248-0.097-0.486-0.274-0.664
			c-0.176-0.172-0.412-0.268-0.656-0.268c-0.005,0-0.005,0-0.011,0l-0.863,0.003c-1.428,0-2.984-0.042-4.116-0.306V295.89
			c0.319-0.15,0.542-0.471,0.542-0.843v-3.771c0-0.373-0.223-0.697-0.542-0.843v-2.93c0-0.378-0.223-0.701-0.542-0.847v-1.308
			c0-0.376-0.223-0.7-0.542-0.846V283.2c0-0.377-0.23-0.696-0.546-0.846v-1.312c0-0.377-0.228-0.7-0.548-0.847v-1.847
			c0-0.376-0.225-0.703-0.541-0.852v-0.23c0-0.265-0.112-0.521-0.312-0.698l-2.552-2.261l-2.213-1.966
			c-0.368-0.525-0.72-1.247-1.103-2.012c-0.595-1.203-1.208-2.44-2-3.247c-0.037-0.146-0.055-0.215-0.062-0.256
			c-0.025-0.235-0.229-0.598-0.403-0.751c-0.048-0.035-0.113-0.1-0.241-0.23c-0.179-0.175-0.413-0.271-0.661-0.271
			c-0.084,0-0.175,0.011-0.256,0.036c-0.323,0.096-0.574,0.359-0.651,0.69c-0.792,3.475-3.31,6.326-5.137,8.168
			c-0.257,0.256-0.562,0.498-0.868,0.744c-0.731,0.576-1.559,1.234-2.007,2.215c-0.037,0.078-0.062,0.164-0.073,0.249l-0.271,1.882
			l-0.165,1.13c-0.377,0.119-0.653,0.47-0.653,0.891v1.309c-0.319,0.149-0.547,0.47-0.547,0.847v2.383
			c-0.314,0.147-0.538,0.469-0.538,0.844v14.772c-0.32,0.147-0.538,0.469-0.538,0.847v6.231c-1.001,0.2-1.875,0.371-3.305,0.371
			c-0.388,0-0.775,0.247-0.935,0.594c-0.362,0.131-0.618,0.473-0.618,0.88v18.442h-9.833c-0.521,0-0.934,0.416-0.934,0.931v18.001
			c-0.319,0.148-0.542,0.469-0.542,0.847v1.312c-0.316,0.147-0.54,0.469-0.54,0.847v1.038l-0.289,0.146l-0.267,0.133
			c-0.318,0.156-0.517,0.481-0.517,0.835v2.297h-3.666l-0.9-5.078l-0.582-3.297c-0.076-0.447-0.464-0.773-0.912-0.773h-1.077
			c-0.513,0-0.933,0.418-0.933,0.933v3.999c-0.316,0.149-0.544,0.47-0.544,0.846v30.285H500.5v-94.35
			c0-0.371-0.223-0.697-0.542-0.841v-0.775c0-0.515-0.412-0.932-0.934-0.932h-0.042l-0.262-0.396l-0.541-0.808
			c-0.115-0.176-0.282-0.306-0.483-0.37l-0.672-0.224l-0.308-0.101v-0.402c0-0.377-0.219-0.7-0.542-0.846v-5.08
			c0-0.372-0.221-0.697-0.538-0.842v-0.235c0-0.295-0.14-0.571-0.383-0.746l-0.771-0.576l-1.009-0.758v-0.611
			c0-0.376-0.222-0.697-0.542-0.846V269.2c0-0.31-0.152-0.604-0.414-0.775l-0.467-0.313l-0.729-0.489v-0.577
			c0-0.376-0.225-0.701-0.546-0.846v-2.92c0-0.449-0.313-0.822-0.734-0.912l-0.371-1.477c-0.078-0.318-0.33-0.571-0.648-0.664
			c-0.88-0.253-0.948-0.381-1.085-0.622c-0.152-0.281-0.386-0.68-0.969-1.142l-1.407-18.241l-0.18-2.322
			c-0.036-0.484-0.438-0.855-0.927-0.855h-1.614c-0.516,0-0.924,0.409-0.932,0.918c-0.031,1.899,0.076,3.855,0.182,5.748
			c0.229,4.254,0.452,8.269-0.681,11.737c-0.034,0.095-0.052,0.19-0.052,0.291v1.309c-0.246,0.117-0.441,0.341-0.52,0.622
			l-0.459,1.835l-0.807,0.611l-1.079,0.812c-0.229,0.175-0.373,0.451-0.373,0.743v0.23c-0.253,0.119-0.449,0.346-0.515,0.634
			l-1.008,4.339l-0.447,1.956c-0.423,0.093-0.729,0.466-0.729,0.908v0.233c-0.263,0.122-0.457,0.36-0.527,0.659l-0.235,1.208
			l-0.153,0.762c-0.327,0.082-0.59,0.341-0.677,0.68l-0.217,0.856l-0.153,0.608c-0.38,0.079-0.671,0.373-0.733,0.762l-0.285,1.762
			l-0.117,0.724c-0.395,0.111-0.681,0.47-0.681,0.893v3.837c-0.343,0.246-0.667,0.627-0.898,1.335
			c-0.576,0.185-0.863,0.373-1.209,0.614c-0.153,0.111-0.335,0.235-0.627,0.392c-0.188,0.1-0.341,0.271-0.426,0.473
			c-1.19,2.972-1.168,7.358-1.153,11.596l0.006,1.674v23.144v48.409l-0.556,0.279c-0.295,0.149-0.49,0.444-0.515,0.776l-0.521,7.636
			l-0.029,0.434l-0.003,14.58l-1.396-0.233c-0.11-0.393-0.474-0.685-0.898-0.685h-0.725c-0.536-0.728-0.591-3.386-0.637-5.033
			c-0.039-1.78-0.078-3.454-0.44-4.562c-0.08-0.239-0.264-0.443-0.488-0.542v-0.761c0-0.193-0.069-0.384-0.176-0.544l-1.339-1.875
			l-1.357-1.899c-0.175-0.242-0.455-0.388-0.754-0.388h-0.821c-0.648-0.385-1.992-1.228-2.557-1.637v-3.884
			c0-0.373-0.224-0.696-0.542-0.842v-0.775c0-0.157-0.039-0.313-0.116-0.456c-0.105-0.201-0.258-0.309-0.44-0.454
			c-0.164-0.114-0.524-0.389-0.612-0.577c-0.158-0.316-0.481-0.522-0.839-0.522h-1.621c-0.451,0-0.837,0.324-0.916,0.768
			c-0.051,0.257-0.099,0.392-0.128,0.456c-0.255,0.167-0.422,0.458-0.422,0.782v4.809l-0.077,0.036l-0.488,0.241
			c-0.091,0.05-0.182,0.113-0.253,0.191c-0.67,0.697-1.428,1.171-2.242,1.677c-1.478,0.928-3.164,1.976-3.873,4.499
			c-0.954,1.574-1.441,7.012-1.632,9.688h-1.966v-22.751c0-0.514-0.414-0.932-0.932-0.932h-14.138v-5.527
			c0-0.476-0.36-0.875-0.838-0.928c-0.888-0.093-1.056-0.149-1.492-0.32c-0.046-0.225-0.07-0.466-0.095-0.73
			c-0.059-0.475-0.106-1.012-0.32-1.581c-0.087-0.234-0.261-0.417-0.487-0.519v-0.775c0-0.355-0.204-0.681-0.524-0.837l-0.544-0.273
			v-3.727c0-0.444-0.312-0.827-0.744-0.914l-1.223-0.243l-0.726-0.145v-5.69c0-0.448-0.319-0.823-0.737-0.914l-0.14-0.545
			l-0.229-0.924c-0.068-0.261-0.236-0.48-0.488-0.603l-0.695-0.348l-0.435-1.739c-0.074-0.281-0.26-0.508-0.519-0.623v-1.302
			c0-0.416-0.271-0.775-0.656-0.892l-0.297-2.067l-0.139-0.95c-0.047-0.344-0.276-0.622-0.583-0.739
			c-0.116-0.297-0.387-0.521-0.706-0.58c-0.059-0.009-0.102-0.017-0.162-0.017c-0.391,0-0.735,0.241-0.871,0.612l-3.6,9.766
			c-0.028,0.004-0.051,0.008-0.064,0.008c-0.234,0.028-0.59,0.23-0.74,0.405c-0.037,0.045-0.094,0.116-0.225,0.242
			c-1.107,1.234-0.874,2.979-0.678,4.522c0.113,0.911,0.232,1.856,0.064,2.455l-0.229,0.116l-1.618,0.805
			c-0.313,0.156-0.519,0.48-0.519,0.835v2.387c-0.27,0.125-0.472,0.38-0.528,0.693l-0.52,3.104
			c-0.222,0.432-0.594,0.936-0.969,1.428c-0.282,0.376-0.566,0.757-0.818,1.147h-0.542c-0.517,0-0.932,0.417-0.932,0.932v5.527
			h-13.601c-0.518,0-0.933,0.417-0.933,0.933v22.295c-0.203,0.086-0.371,0.251-0.457,0.458h-3.051l0.543-43.712l1.064-86.689
			c0.008-0.511-0.394-0.932-0.912-0.944c-1.102-0.018-1.732-0.107-2.315-0.274v-30.017
			C377.801,229.929,377.387,229.51,376.871,229.51L376.871,229.51z"/>
	</g>
	<g>
		<path fill="#FFFFFF" stroke="#CED5DC" stroke-width="0.9318" stroke-linejoin="round" stroke-miterlimit="10" d="M197.088,416.619
			c-0.259,0-0.466-0.215-0.466-0.465l-0.004-5.918c0-0.125,0.048-0.24,0.137-0.328c0.091-0.096,0.206-0.141,0.33-0.141h0.078v-0.078
			c0-0.184,0.099-0.344,0.256-0.42l1.077-0.533c0.068-0.037,0.136-0.053,0.204-0.053c0.061,0,0.12,0.016,0.177,0.037
			c0.122,0.051,0.217,0.152,0.26,0.277c0.203,0.553,0.221,1.732,0.238,3.086c0.016,1.043,0.039,2.432,0.188,3.051h0.215
			c0.259,0,0.466,0.211,0.466,0.465v0.547c0,0.256-0.208,0.465-0.466,0.465h-2.689L197.088,416.619L197.088,416.619z"/>
		<path fill="#FFFFFF" stroke="#CED5DC" stroke-width="0.9318" stroke-linejoin="round" stroke-miterlimit="10" d="M198.697,409.158
			c0.384,1.062,0.019,5.523,0.543,6.453c0.18,0,0.362,0,0.541,0c0,0.182,0,0.359,0,0.543c-0.898,0-1.792,0-2.693,0
			c0-1.975,0-3.949-0.003-5.918c0.177,0,0.363,0,0.543,0c0-0.184,0-0.361,0-0.543C197.985,409.513,198.339,409.332,198.697,409.158
			 M198.697,408.224c-0.141,0-0.279,0.037-0.407,0.096l-0.655,0.322l-0.426,0.217c-0.214,0.107-0.376,0.291-0.458,0.514
			c-0.123,0.043-0.234,0.113-0.329,0.211c-0.173,0.178-0.271,0.412-0.271,0.666l0.004,5.918c0,0.514,0.417,0.932,0.932,0.932h2.693
			c0.515,0,0.931-0.418,0.931-0.932v-0.557c0-0.455-0.324-0.834-0.754-0.914c-0.083-0.674-0.102-1.842-0.113-2.613
			c-0.025-1.619-0.051-2.635-0.268-3.238c-0.089-0.244-0.281-0.451-0.526-0.543C198.934,408.248,198.819,408.224,198.697,408.224
			L198.697,408.224z"/>
	</g>
	<g>
		<path fill="#FFFFFF" stroke="#CED5DC" stroke-width="0.9318" stroke-linejoin="round" stroke-miterlimit="10" d="M207.306,417.154
			c-0.129,0-0.252-0.055-0.342-0.148c-0.086-0.094-0.136-0.227-0.125-0.355l0.545-6.996c0.016-0.205,0.157-0.371,0.351-0.416
			l2.145-0.531c0.038-0.008,0.075-0.014,0.113-0.014c0.182,0,0.359,0.098,0.432,0.266c1.056,2.33,1.198,4.27,1.114,7.734
			c-0.002,0.248-0.212,0.455-0.465,0.455L207.306,417.154L207.306,417.154z"/>
		<path fill="#FFFFFF" stroke="#CED5DC" stroke-width="0.9318" stroke-linejoin="round" stroke-miterlimit="10" d="M210.002,409.158
			c0.992,2.189,1.156,4.041,1.073,7.535c-1.255,0-2.513,0-3.773,0c0.184-2.334,0.362-4.668,0.544-7
			C208.572,409.505,209.286,409.332,210.002,409.158 M210.002,408.224c-0.075,0-0.15,0.01-0.22,0.029l-2.162,0.539
			c-0.388,0.094-0.67,0.432-0.702,0.838l-0.271,3.494l-0.27,3.492c-0.021,0.254,0.069,0.516,0.243,0.701
			c0.177,0.195,0.425,0.297,0.686,0.297h3.772c0.507,0,0.921-0.4,0.933-0.91c0.078-3.471-0.075-5.531-1.156-7.934
			C210.699,408.431,210.364,408.224,210.002,408.224L210.002,408.224z"/>
	</g>
	<g>
		<path fill="#FFFFFF" stroke="#CED5DC" stroke-width="0.9318" stroke-linejoin="round" stroke-miterlimit="10" d="M205.134,417.154
			c-1.46-0.076-1.923-0.229-2.832-0.57c-0.179-0.07-0.303-0.24-0.303-0.438c0-2.285,0.19-4.551,0.545-6.537
			c0.042-0.227,0.231-0.387,0.458-0.387h1.618c0.149,0,0.283,0.072,0.372,0.186c0.08,0.105,0.142,0.193,0.186,0.27
			c0.072,0.045,0.15,0.1,0.253,0.176c0.12,0.082,0.188,0.229,0.188,0.375v6.461c0,0.127-0.053,0.252-0.146,0.34
			c-0.084,0.08-0.203,0.127-0.321,0.127C205.153,417.154,205.145,417.154,205.134,417.154z"/>
		<path fill="#FFFFFF" stroke="#CED5DC" stroke-width="0.9318" stroke-linejoin="round" stroke-miterlimit="10" d="M204.624,409.689
			c0.459,0.609-0.075,0.088,0.538,0.537c0,2.154,0,4.307,0,6.463c-1.415-0.07-1.828-0.217-2.692-0.543
			c0-2.461,0.22-4.674,0.54-6.457C203.545,409.689,204.086,409.689,204.624,409.689 M204.624,408.755h-1.617
			c-0.453,0-0.841,0.324-0.919,0.77c-0.361,2.018-0.551,4.307-0.551,6.621c0,0.387,0.239,0.729,0.601,0.861
			c0.932,0.359,1.445,0.535,2.974,0.605c0.015,0,0.029,0,0.046,0c0.238,0,0.469-0.084,0.64-0.252
			c0.187-0.182,0.292-0.422,0.292-0.682v-6.453c0-0.299-0.142-0.574-0.376-0.75c-0.068-0.055-0.132-0.096-0.191-0.139
			c-0.047-0.076-0.1-0.139-0.153-0.211C205.193,408.894,204.918,408.755,204.624,408.755L204.624,408.755z"/>
	</g>
	<g>
		<path fill="#FFFFFF" stroke="#CED5DC" stroke-width="0.9318" stroke-linejoin="round" stroke-miterlimit="10" d="M129.801,468.501
			h-8.61c-0.513,0-0.932,0.416-0.932,0.932v25.986H91.443v-25.986c0-0.516-0.417-0.932-0.932-0.932h-8.617
			c-0.514,0-0.932,0.416-0.932,0.932v64.062c0,0.512,0.418,0.93,0.932,0.93h8.617c0.515,0,0.932-0.418,0.932-0.93v-28.674h28.816
			v28.674c0,0.512,0.418,0.93,0.932,0.93h8.61c0.516,0,0.933-0.418,0.933-0.93v-64.062
			C130.733,468.925,130.316,468.501,129.801,468.501L129.801,468.501z"/>
	</g>
	<g>
		<path fill="#FFFFFF" stroke="#CED5DC" stroke-width="0.9318" stroke-linejoin="round" stroke-miterlimit="10" d="M143.797,533.958
			c-0.257,0-0.467-0.207-0.467-0.465v-64.061c0-0.258,0.209-0.467,0.467-0.467h8.617c0.258,0,0.467,0.209,0.467,0.467v64.061
			c0,0.258-0.208,0.465-0.467,0.465H143.797z"/>
	</g>
	<g>
		<path fill="#FFFFFF" stroke="#CED5DC" stroke-width="0.9318" stroke-linejoin="round" stroke-miterlimit="10" d="M166.404,533.958
			c-0.258,0-0.466-0.207-0.466-0.465v-64.061c0-0.258,0.208-0.467,0.466-0.467h8.612c0.258,0,0.465,0.209,0.465,0.467v56.594h26.987
			c0.257,0,0.465,0.211,0.465,0.467v7c0,0.258-0.208,0.465-0.465,0.465H166.404z"/>
		<path fill="#FFFFFF" stroke="#CED5DC" stroke-width="0.9318" stroke-linejoin="round" stroke-miterlimit="10" d="M175.017,468.501
			h-8.612c-0.515,0-0.932,0.416-0.932,0.932v64.062c0,0.512,0.417,0.93,0.932,0.93h36.065c0.515,0,0.931-0.418,0.931-0.93v-7.002
			c0-0.518-0.417-0.932-0.931-0.932h-26.521v-56.129C175.948,468.925,175.532,468.501,175.017,468.501L175.017,468.501z"/>
	</g>
	<g>
		<path fill="#FFFFFF" stroke="#CED5DC" stroke-width="0.9318" stroke-linejoin="round" stroke-miterlimit="10" d="M220.232,469.433
			c0,19.021,0,38.045,0,57.061c9.148,0,18.302,0,27.452,0c0,2.332,0,4.668,0,7.002c-12.021,0-24.043,0-36.065,0
			c0-21.357,0-42.709,0-64.062C214.494,469.433,217.359,469.433,220.232,469.433"/>
	</g>
	<g>
		<path fill="#FFFFFF" stroke="#CED5DC" stroke-width="0.9318" stroke-linejoin="round" stroke-miterlimit="10" d="M262.75,533.97
			c-0.257,0-0.466-0.207-0.466-0.465v-26.988h-0.075c-0.214,0-0.402-0.145-0.455-0.355l-0.484-1.943l-0.882-0.443
			c-0.156-0.076-0.257-0.232-0.257-0.408v-0.611h-0.075c-0.258,0-0.465-0.207-0.465-0.465v-1.076l-0.939-0.744l-0.11-1.105
			l-0.85-0.43c-0.122-0.062-0.212-0.168-0.241-0.307l-0.448-1.789h-0.179c-0.256,0-0.465-0.213-0.465-0.465v-1.078l-0.936-0.744
			l-0.107-1.104l-0.853-0.426c-0.158-0.082-0.26-0.236-0.26-0.416V492h-0.074c-0.257,0-0.465-0.207-0.465-0.465v-1.074l-0.937-0.742
			l-0.106-1.105l-0.847-0.432c-0.156-0.074-0.26-0.238-0.26-0.416v-0.625h-0.079c-0.259,0-0.466-0.215-0.466-0.465v-1.078
			l-0.941-0.746l-0.107-1.104l-0.847-0.43c-0.156-0.08-0.257-0.24-0.257-0.414v-0.613h-0.075c-0.255,0-0.465-0.207-0.465-0.465
			v-0.604h-0.074c-0.256,0-0.467-0.209-0.467-0.467v-1.078l-0.942-0.756l-0.105-1.092l-0.849-0.422l-0.842-2.111l-0.356-1.07h-0.205
			c-0.257,0-0.466-0.213-0.466-0.465v-0.787l-0.814-0.406c-0.161-0.08-0.262-0.234-0.262-0.416v-0.611h-0.073
			c-0.203,0-0.381-0.123-0.445-0.316l-0.54-1.619c-0.049-0.146-0.025-0.299,0.064-0.418c0.085-0.123,0.228-0.201,0.381-0.201h9.695
			c0.185,0,0.356,0.115,0.427,0.285c0.365,0.865,0.886,1.701,1.383,2.496c0.264,0.424,0.522,0.832,0.744,1.229l0.05,1.01
			l0.835,0.418l1.189,3.178h0.219c0.257,0,0.466,0.207,0.466,0.467v0.607h0.078c0.217,0,0.399,0.146,0.456,0.355l0.447,1.799h0.175
			c0.212,0,0.399,0.146,0.452,0.35l0.454,1.807h0.175c0.257,0,0.466,0.207,0.466,0.465v0.613h0.078c0.257,0,0.465,0.207,0.465,0.465
			v0.604h0.075c0.257,0,0.466,0.207,0.466,0.465v0.611h0.078c0.256,0,0.467,0.209,0.467,0.469v0.609h0.073
			c0.201,0,0.378,0.123,0.444,0.312l0.969,2.918h0.209c0.257,0,0.465,0.205,0.465,0.467v1.078c0.239,0.336,0.556,0.879,0.875,1.441
			c0.95,1.666,1.931,3.377,2.561,5.369c1.089-1.1,1.607-2.5,2.156-3.973c0.324-0.869,0.648-1.746,1.063-2.52
			c0.083-0.152,0.239-0.246,0.412-0.246h0.075v-0.611c0-0.26,0.208-0.467,0.466-0.467h0.075v-0.611c0-0.258,0.208-0.465,0.466-0.465
			h0.078v-0.607c0-0.26,0.208-0.467,0.467-0.467h0.177l0.448-1.801c0.051-0.209,0.234-0.354,0.449-0.354h0.079v-0.619
			c0-0.26,0.209-0.469,0.466-0.469h0.078v-0.607c0-0.254,0.21-0.465,0.468-0.465h0.073v-0.611c0-0.254,0.21-0.467,0.467-0.467h0.07
			v-0.609c0-0.256,0.209-0.465,0.466-0.465h0.18l0.968-2.906l1.107-0.691l0.497-1.973c0.402-0.795,0.82-1.473,1.246-2.178
			c1.006-1.646,2.041-3.352,2.5-5.357c0.049-0.219,0.234-0.365,0.454-0.365h9.695c0.142,0,0.279,0.07,0.363,0.178
			c0.091,0.115,0.122,0.262,0.086,0.398c-0.286,1.184-0.873,1.98-1.434,2.752c-0.268,0.363-0.538,0.73-0.769,1.137l0.061,0.855
			c0,0.174-0.098,0.334-0.253,0.41l-0.888,0.443l-0.488,1.943c-0.035,0.131-0.123,0.24-0.242,0.301l-1.07,0.545l-0.416,1.666
			l-0.43,1.297l-0.907,0.604l-0.405,0.205l-0.624,2.307l-0.22,0.648l-1.049,0.686v0.789c0,0.25-0.21,0.467-0.467,0.467h-0.078v0.609
			c0,0.174-0.096,0.334-0.256,0.41l-1.076,0.543l-0.844,2.975l-1.111,0.684l-0.494,1.975c-0.034,0.123-0.123,0.236-0.247,0.305
			l-1.084,0.535l-0.839,2.961l-1.11,0.689l-0.492,1.967c-0.035,0.131-0.12,0.24-0.243,0.301l-1.086,0.547l-0.3,1.346l-0.538,1.615
			l-0.756,0.521l-0.289,0.145v0.791c0,0.254-0.207,0.465-0.465,0.465h-0.075v27.525c0,0.258-0.208,0.465-0.466,0.465h-8.613V533.97z
			"/>
	</g>
	<g>
		<path fill="#FFFFFF" stroke="#CED5DC" stroke-width="0.9318" stroke-linejoin="round" stroke-miterlimit="10" d="M448.998,468.501
			h-8.616c-0.514,0-0.93,0.416-0.93,0.932v32.309v1.545c-0.016,7.258-0.025,14.115,2.229,19.275
			c0.132,0.301,0.403,0.508,0.723,0.545l0.247,0.756l0.617,1.846c0.077,0.232,0.237,0.414,0.46,0.539l0.56,0.291v0.5
			c0,0.357,0.213,0.686,0.533,0.84c0.298,0.146,0.596,0.293,0.884,0.443l0.49,0.574l2.083,2.504
			c0.175,0.217,0.438,0.336,0.715,0.336h0.508l0.277,0.561c0.116,0.236,0.343,0.416,0.604,0.488l1.048,0.26l0.42,0.107
			c0.083,0.42,0.467,0.73,0.904,0.73h0.773c0.145,0.32,0.466,0.547,0.849,0.547h0.774c0.147,0.316,0.468,0.545,0.852,0.545h1.841
			c0.106,0.234,0.32,0.43,0.58,0.506c0.833,0.236,1.954,0.361,3.371,0.361c4.458,0,11.079-1.24,12.866-2.021
			c0.219-0.092,0.383-0.26,0.474-0.463h0.231c0.447,0,0.83-0.314,0.909-0.734l1.473-0.367c0.263-0.068,0.494-0.242,0.609-0.492
			l0.284-0.559h0.502c0.284,0,0.552-0.131,0.729-0.355l1.38-1.734l0.636-0.803l0,0l0.887-0.436c0.319-0.152,0.525-0.48,0.525-0.838
			v-0.582l0.846-0.557l0.36-0.236c0.17-0.113,0.3-0.279,0.365-0.482l0.548-1.621l0.324-0.982c0.313-0.043,0.584-0.246,0.715-0.545
			c2.251-5.104,2.248-12.43,2.236-19.502v-1.318v-31.764c0-0.518-0.414-0.932-0.932-0.932h-8.611c-0.522,0-0.935,0.414-0.935,0.932
			v30.148l0.009,3.033c0.051,9.605,0.076,15.404-5.117,20.523c-0.044,0.043-0.084,0.09-0.12,0.145l-0.478,0.717l-0.489,0.73
			c-1.521,0.934-5.702,2.25-9.004,2.25c-0.661,0-1.266-0.051-1.799-0.152c-0.087-0.416-0.461-0.729-0.909-0.729h-1.308
			c-0.147-0.32-0.473-0.541-0.848-0.541h-0.229c-0.15-0.32-0.474-0.543-0.855-0.543h-0.229c-0.062-0.133-0.159-0.256-0.284-0.352
			c-0.786-0.598-1.099-0.816-1.961-1.084c-0.278-0.902-0.496-1.201-1.092-1.965c-0.084-0.121-0.211-0.213-0.347-0.275v-0.229
			c0-0.359-0.196-0.678-0.514-0.838l-0.354-0.18l-0.204-0.104v-1.033c0-0.383-0.23-0.703-0.548-0.854v-0.23
			c0-0.412-0.272-0.766-0.647-0.885l-0.159-1.254l-0.28-2.279c-0.039-0.33-0.251-0.6-0.534-0.729v-43.309
			C449.93,468.925,449.509,468.501,448.998,468.501L448.998,468.501z"/>
	</g>
	<g>
		<path fill="#FFFFFF" stroke="#CED5DC" stroke-width="0.9318" stroke-linejoin="round" stroke-miterlimit="10" d="M516.271,533.97
			c-0.255,0-0.468-0.207-0.468-0.465v-26.988h-0.079c-0.219,0-0.393-0.145-0.45-0.354l-0.491-1.945l-0.565-0.285
			c-0.151-0.07-0.566-0.391-0.566-0.566v-0.611h-0.078c-0.256,0-0.468-0.207-0.468-0.465v-1.076l-0.938-0.744l-0.103-1.105
			l-0.855-0.43c-0.12-0.062-0.214-0.168-0.236-0.301l-0.451-1.795h-0.176c-0.257,0-0.465-0.213-0.465-0.465v-1.078l-0.939-0.744
			l-0.106-1.1l-0.853-0.43c-0.161-0.082-0.257-0.236-0.257-0.416V492h-0.075c-0.252,0-0.466-0.207-0.466-0.465v-1.074l-0.938-0.742
			l-0.105-1.105l-0.845-0.424c-0.16-0.076-0.262-0.236-0.262-0.414v-0.635h-0.081c-0.254,0-0.467-0.215-0.467-0.465v-1.078
			l-0.944-0.746l-0.099-1.104l-0.856-0.43c-0.153-0.08-0.248-0.24-0.248-0.414v-0.613h-0.08c-0.261,0-0.465-0.207-0.465-0.465
			v-0.604h-0.077c-0.258,0-0.465-0.209-0.465-0.467v-1.078l-0.936-0.756l-0.105-1.092l-0.854-0.422l-0.904-2.291l-0.295-0.885
			h-0.207c-0.254,0-0.467-0.215-0.467-0.467v-0.793l-0.814-0.398c-0.168-0.082-0.27-0.24-0.27-0.42v-0.609h-0.068
			c-0.201,0-0.384-0.129-0.44-0.318l-0.543-1.623c-0.047-0.139-0.024-0.299,0.062-0.418c0.091-0.119,0.231-0.193,0.386-0.193h9.694
			c0.191,0,0.358,0.109,0.428,0.285c0.375,0.869,0.895,1.717,1.396,2.512c0.253,0.414,0.511,0.822,0.727,1.207l0.051,1.01
			l0.837,0.412l1.188,3.184h0.218c0.255,0,0.465,0.215,0.465,0.467v0.607h0.077c0.212,0,0.397,0.146,0.448,0.355l0.459,1.799h0.173
			c0.213,0,0.396,0.146,0.452,0.35l0.46,1.807h0.17c0.259,0,0.465,0.207,0.465,0.465v0.604h0.077c0.258,0,0.468,0.217,0.468,0.469
			v0.604h0.079c0.256,0,0.466,0.215,0.466,0.465v0.613h0.073c0.259,0,0.466,0.215,0.466,0.465v0.613h0.08
			c0.201,0,0.378,0.129,0.438,0.318l0.979,2.912h0.204c0.258,0,0.465,0.211,0.465,0.467v1.074c0.244,0.346,0.559,0.895,0.887,1.465
			c0.948,1.652,1.928,3.363,2.562,5.357c1.085-1.102,1.603-2.496,2.147-3.967c0.318-0.869,0.647-1.748,1.062-2.52
			c0.079-0.152,0.24-0.248,0.408-0.248h0.076v-0.609c0-0.258,0.215-0.467,0.466-0.467h0.076v-0.611c0-0.256,0.207-0.465,0.466-0.465
			h0.077v-0.609c0-0.258,0.207-0.465,0.466-0.465h0.179l0.45-1.801c0.058-0.213,0.24-0.355,0.451-0.355h0.073v-0.625
			c0-0.26,0.215-0.467,0.466-0.467h0.081v-0.607c0-0.256,0.209-0.465,0.464-0.465h0.08v-0.611c0-0.254,0.21-0.467,0.468-0.467h0.076
			v-0.611c0-0.254,0.207-0.465,0.466-0.465h0.207l0.969-2.904l0.78-0.543l0.34-0.176l0.492-1.939
			c0.396-0.785,0.819-1.471,1.236-2.154c1.01-1.654,2.051-3.369,2.512-5.379c0.057-0.213,0.229-0.365,0.457-0.365h9.688
			c0.146,0,0.272,0.068,0.365,0.184c0.094,0.109,0.123,0.254,0.094,0.393c-0.282,1.184-0.872,1.98-1.44,2.752
			c-0.262,0.371-0.539,0.723-0.771,1.143l0.072,0.85c0,0.174-0.101,0.334-0.256,0.41l-0.882,0.445l-0.491,1.938
			c-0.031,0.129-0.118,0.238-0.244,0.309l-1.065,0.541l-0.316,1.346l-0.538,1.625l-0.903,0.596l-0.401,0.205l-0.85,2.963
			l-1.049,0.652v0.814c0,0.258-0.212,0.465-0.467,0.465h-0.071v0.611c0,0.176-0.096,0.338-0.256,0.412l-1.077,0.545l-0.84,2.963
			l-1.115,0.686l-0.506,1.979c-0.027,0.133-0.119,0.238-0.239,0.299l-1.07,0.543l-0.372,1.545l-0.472,1.416l-0.876,0.59
			l-0.239,0.125l-0.493,1.941c-0.029,0.127-0.113,0.232-0.232,0.299l-1.081,0.547l-0.197,1.014l-0.651,1.941l-0.799,0.549
			l-0.244,0.123v0.791c0,0.256-0.216,0.467-0.468,0.467H525.4v27.523c0,0.258-0.211,0.467-0.468,0.467h-8.66L516.271,533.97
			L516.271,533.97z"/>
	</g>
	<g>
		<path fill="#FFFFFF" stroke="#CED5DC" stroke-width="0.9318" stroke-linejoin="round" stroke-miterlimit="10" d="M317.115,533.958
			c-0.257,0-0.465-0.207-0.465-0.465v-5.383c0-0.168,0.091-0.32,0.233-0.396c0.746-0.428,1.185-0.973,1.693-1.6
			c0.275-0.342,0.558-0.689,0.899-1.023l5.939-5.391l0.255-0.582l0.182-0.369l0.846-0.701l1.44-1.076l0.402-0.91
			c0.078-0.158,0.237-0.262,0.416-0.262h0.839l2.558-3.57l5.834-5.314v-0.871c0-0.145,0.065-0.283,0.181-0.371l1.972-1.477v-0.85
			c0-0.176,0.102-0.34,0.257-0.41l1.082-0.543l0.029-0.543l0.27-0.812c0.062-0.193,0.238-0.32,0.441-0.32h0.078v-0.609
			c0-0.176,0.102-0.34,0.259-0.412l0.819-0.414v-0.787c1.34-2.525,3.5-7.621,2.795-10.832h-0.183c-0.256,0-0.466-0.211-0.466-0.467
			v-2.229h-0.073c-0.221,0-0.41-0.158-0.459-0.377c-0.187-0.896-1.617-3.729-1.984-4.027l-0.789,0.098
			c-0.179,0-0.338-0.098-0.416-0.264l-0.539-1.07c-0.159-0.029-0.361-0.062-0.592-0.094c-0.471-0.08-0.879-0.191-1.492-0.877
			c-0.252,0.045-0.558,0.066-0.893,0.066c-0.54,0-1.156-0.051-1.771-0.09c-1.241-0.09-2.483-0.201-3.695-0.201
			c-1.874,0-3.367,0.24-4.674,0.766v0.232c0,0.203-0.124,0.387-0.315,0.441l-3.228,1.072l-0.275,0.848
			c-0.078,0.158-0.239,0.256-0.413,0.256h-0.825l-0.939,1.412c-0.078,0.105-0.206,0.189-0.342,0.207c-0.017,0-0.031,0-0.044,0
			c-0.125,0-0.243-0.051-0.33-0.131l-0.54-0.547c-0.777-0.697-0.861-1.121-0.895-1.682c-0.015-0.24-0.025-0.496-0.167-0.873h-0.229
			c-0.203,0-0.381-0.125-0.443-0.312l-1.068-3.23c-0.072-0.213,0.017-0.438,0.211-0.551c0.294-0.164,0.438-0.369,0.596-0.58
			c0.124-0.166,0.25-0.348,0.444-0.473l1.039-0.064l0.428-0.846c0.078-0.152,0.237-0.25,0.413-0.25h0.611v-0.078
			c0-0.203,0.125-0.383,0.316-0.438l2.911-0.975v-0.209c0-0.229,0.163-0.42,0.387-0.457l2.838-0.473v-0.15
			c0-0.254,0.209-0.465,0.466-0.465h2.232v-0.08c0-0.211,0.137-0.387,0.338-0.451c0.73-0.205,1.7-0.312,2.874-0.312
			c2.391,0,5.256,0.443,6.547,0.857l2.008-0.021c0.255,0,0.466,0.211,0.466,0.467v0.078h1.151c0.257,0,0.466,0.205,0.466,0.467
			v0.176l1.801,0.451c0.208,0.051,0.35,0.229,0.35,0.451v0.072h0.613c0.155,0,0.3,0.08,0.385,0.207l1.079,1.611l3.687,3.146
			c0.101,0.08,0.16,0.227,0.16,0.354v0.609h0.074c0.257,0,0.466,0.217,0.466,0.467v0.611h0.078c0.188,0,0.354,0.105,0.425,0.273
			c0.571,1.303,2.333,8.617,1.633,11.082c-0.054,0.209-0.238,0.346-0.444,0.346h-0.075v2.756
			c-3.245,9.891-10.387,17.586-16.827,24.014c-0.812,0.816-1.807,1.682-2.849,2.584c-1.867,1.635-3.959,3.451-5.231,5.229h26.589
			c0.259,0,0.467,0.211,0.467,0.465v7.002c0,0.258-0.208,0.465-0.467,0.465H317.115L317.115,533.958z"/>
	</g>
	<g>
		<path fill="#FFFFFF" stroke="#CED5DC" stroke-width="0.9318" stroke-linejoin="round" stroke-miterlimit="10" d="M679.873,534.037
			v0.465c-8.191,0-12.813-2.016-16.486-7.193l-1.492-0.967c-0.127-0.08-0.209-0.232-0.209-0.387v-0.609h-0.078
			c-0.25,0-0.467-0.203-0.467-0.467v-0.613h-0.071c-0.26,0-0.468-0.203-0.468-0.463v-1.145h-0.08c-0.248,0-0.464-0.207-0.464-0.467
			v-1.617c-0.691-1.795-2.068-8.121-1.05-11.438c3.323-10.867,10.175-16.406,20.354-16.475l1.2-0.006
			c4.025,0,8.349,0.213,9.896,1.756c0.182,0.182,0.188,0.473,0.005,0.656c-0.533,0.547-0.888,2.049-0.94,3.986
			c-0.003,0.127-0.062,0.252-0.16,0.344c-0.084,0.076-0.193,0.107-0.308,0.107c-0.017,0-0.034,0-0.053,0
			c-1.306-0.152-2.461-0.465-3.583-0.771c-1.405-0.387-2.733-0.74-4.222-0.74c-0.924,0-1.827,0.139-2.774,0.424l-2.358,0.02v0.064
			c0,0.264-0.215,0.467-0.465,0.467h-1.156v0.08c0,0.205-0.128,0.379-0.321,0.445l-3.229,1.068l-1.396,1.994l-0.982,0.539v0.795
			c0,0.174-0.1,0.334-0.247,0.414l-0.826,0.414v0.789c0,0.26-0.215,0.469-0.466,0.469h-0.146l-0.477,2.838
			c-0.28,0.818-1.109,4.096-1.115,5.381h0.117c0.263,0,0.467,0.205,0.467,0.465v3.84h0.076c0.251,0,0.467,0.207,0.467,0.469v1.146
			h0.076c0.218,0,0.396,0.145,0.449,0.354l0.452,1.801h0.175c0.258,0,0.465,0.207,0.465,0.467v0.848l2.527,2.02l0.542,0.975h0.79
			c0.175,0,0.344,0.09,0.414,0.25l0.432,0.854l3.003,0.512c0.229,0.037,0.388,0.232,0.388,0.457v0.082h2.76
			c0.256,0,0.467,0.205,0.467,0.465v0.074h1.762v-0.074c0-0.26,0.207-0.465,0.467-0.465h3.837v-0.082
			c0-0.232,0.159-0.42,0.385-0.457c0,0,3.284-0.547,3.309-0.547c0.1,0,0.2,0.029,0.28,0.092c0.104,0.076,0.167,0.191,0.183,0.312
			l0.548,4.299c0.02,0.166-0.052,0.336-0.19,0.438c-0.103,0.076-0.192,0.137-0.255,0.182c-0.052,0.07-0.107,0.154-0.188,0.264
			c-0.08,0.102-0.211,0.176-0.343,0.18c-1.361,0.088-2.293,0.412-3.195,0.727c-0.334,0.115-0.669,0.229-1.013,0.34l-4.972,0.014
			L679.873,534.037z"/>
	</g>
	<g>
		<path fill="#FFFFFF" stroke="#CED5DC" stroke-width="0.9318" stroke-linejoin="round" stroke-miterlimit="10" d="M580.866,533.957
			c-0.252,0-0.466-0.213-0.466-0.467v-39.828c0-0.26,0.214-0.467,0.466-0.467h5.383c0.258,0,0.467,0.207,0.467,0.467v35.061h16.759
			c0.259,0,0.466,0.203,0.466,0.465v4.299c0,0.254-0.207,0.463-0.466,0.463L580.866,533.957L580.866,533.957z"/>
	</g>
	<g>
		<path fill="#FFFFFF" stroke="#CED5DC" stroke-width="0.9318" stroke-linejoin="round" stroke-miterlimit="10" d="M626.623,493.662
			c0,11.838,0,23.682,0,35.525c5.743,0,11.482,0,17.228,0c0,1.436,0,2.867,0,4.297c-7.533,0-15.074,0-22.603,0
			c0-13.279,0-26.559,0-39.838C623.038,493.662,624.829,493.662,626.623,493.662"/>
	</g>
	<g>
		<path fill="#FFFFFF" stroke="#CED5DC" stroke-width="0.9318" stroke-linejoin="round" stroke-miterlimit="10" d="M402.172,468.892
			c7.253,0,11.477,0.199,16.146,2.697c0.716,0.174,1.437,0.355,2.15,0.547c0.358,0.543,0.713,1.072,1.076,1.623
			c1.259,1.076,2.516,2.146,3.771,3.217c0,0.371,0,0.705,0,1.076c1.349,2.562,2.402,6.605,1.078,10.23c0,0.545,0,1.076,0,1.623
			c-1.812,4.137-5.537,7.309-9.696,9.143c0,0.189,0,0.363,0,0.539c7.389,0.713,14.97,10.305,11.858,19.906c0,0.717,0,1.438,0,2.156
			c-0.185,0-0.365,0-0.547,0c-0.179,0.717-0.355,1.438-0.539,2.15c-0.183,0-0.355,0-0.537,0c0,0.359,0,0.713,0,1.07
			c-0.367,0.182-0.722,0.367-1.078,0.543c0,0.365,0,0.715,0,1.078c-0.368,0.184-0.719,0.363-1.077,0.545
			c-0.546,0.711-1.077,1.438-1.623,2.156c-0.364,0-0.708,0-1.073,0c-0.182,0.357-0.36,0.711-0.543,1.07
			c-0.718,0.182-1.441,0.363-2.15,0.539c0,0.189,0,0.365,0,0.545c-0.358,0-0.717,0-1.079,0c0,0.184,0,0.363,0,0.541
			c-0.542,0-1.07,0-1.626,0c0,0.176,0,0.361,0,0.543c-3.309,1.297-7.718,1.654-12.335,1.654c-5.194,0-10.647-0.461-15.109-0.578
			c0-21.178,0-42.346,0-63.516c2.152-0.184,4.302-0.359,6.449-0.545c0-0.184,0-0.363,0-0.539
			C397.863,468.892,400.02,468.892,402.172,468.892 M403.179,496.472c5.94,0,10.046-0.715,12.983-4.957
			c0.361-0.186,0.719-0.365,1.078-0.541c0.63-1.025,1.761-5.973,1.078-8.072c-0.18,0-0.369,0-0.543,0
			c-0.188-0.902-0.365-1.799-0.548-2.701c-1.738-1.02-2.923-2.928-4.85-3.777c-1.826-0.803-4.082-1.037-6.433-1.037
			c-2.937,0-6.015,0.383-8.636,0.504c0,6.816,0,13.637,0,20.461C399.45,496.414,401.395,496.472,403.179,496.472 M404.314,527.324
			c4.248,0,8.263-0.5,11.298-2.445c0.188-0.355,0.368-0.707,0.543-1.068c0.368,0,0.717,0,1.076,0
			c0.182-0.539,0.359-1.078,0.544-1.617c0.363-0.182,0.713-0.363,1.076-0.541c0.634-0.967,0.015-1.207,1.074-2.152
			c0.157-2.65,0.789-4.051-0.004-6.457c0-0.723,0-1.438,0-2.154c-2.812-6.953-10.854-8.088-20.626-8.088
			c-0.657,0-1.315,0.006-1.972,0.016c0,8.072,0,16.145,0,24.219C399.641,527.177,402.014,527.324,404.314,527.324"/>
	</g>
	<g>
		<path fill="#FFFFFF" stroke="#CED5DC" stroke-width="0.9318" stroke-linejoin="round" stroke-miterlimit="10" d="M609.399,534.501
			c-0.163,0-0.313-0.084-0.397-0.232c-0.087-0.152-0.229-0.336-0.383-0.545c-0.854-1.174-2.436-3.367-1.254-5.816
			c1.315-1.18,1.58-1.562,1.63-1.654c0.083-0.137,0.236-0.232,0.404-0.232c1.699,0,2.659,0.193,3.761,0.418l0.632,0.121
			c0.168,0.037,0.307,0.152,0.364,0.314l0.547,1.623c0.403,0.344,0.639,1.256,0.542,2.387c-0.096,1.084-0.527,2.473-1.256,2.992
			l-0.88,0.059v0.102c0,0.252-0.213,0.467-0.468,0.467h-3.242V534.501z"/>
	</g>
	<g>
		<path fill="#FFFFFF" stroke="#CED5DC" stroke-width="0.9318" stroke-linejoin="round" stroke-miterlimit="10" d="M649.771,534.501
			c-0.165,0-0.313-0.084-0.396-0.232c-0.091-0.148-0.229-0.336-0.384-0.545c-0.854-1.174-2.434-3.367-1.254-5.816
			c1.254-1.145,1.547-1.508,1.631-1.654c0.08-0.137,0.232-0.232,0.4-0.232c1.699,0,2.655,0.193,3.764,0.418l0.633,0.121
			c0.168,0.037,0.3,0.152,0.36,0.314l0.535,1.629c0.408,0.334,0.646,1.246,0.546,2.381c-0.087,1.072-0.522,2.473-1.252,2.992
			l-0.881,0.059v0.102c0,0.252-0.212,0.467-0.465,0.467h-3.238V534.501z"/>
	</g>
	<g>
		<path fill="#FFFFFF" stroke="#CED5DC" stroke-width="0.9318" stroke-linejoin="round" stroke-miterlimit="10" d="M696.604,534.501
			c-0.17,0-0.313-0.084-0.397-0.232c-0.092-0.152-0.229-0.336-0.383-0.545c-0.855-1.178-2.438-3.367-1.26-5.816
			c1.313-1.18,1.584-1.566,1.631-1.654c0.08-0.137,0.232-0.232,0.394-0.232c1.703,0,2.708,0.213,3.763,0.418l0.635,0.129
			c0.164,0.029,0.299,0.146,0.354,0.307l0.544,1.629c0.405,0.34,0.646,1.25,0.544,2.381c-0.088,1.086-0.53,2.484-1.263,3
			l-0.868,0.055v0.1c0,0.262-0.216,0.465-0.468,0.465h-3.225V534.501z"/>
	</g>
	<path fill="#FFFFFF" stroke="#CED5DC" stroke-width="0.9318" stroke-linejoin="round" stroke-miterlimit="10" d="M312.662,307.561
		c0-2.147,0-4.303,0-6.457c-0.182-3.764-0.366-7.533-0.543-11.3c-1.074-0.325-0.463,0.078-1.079-0.545
		c-1.454-1.636,0.479-5.271-0.539-7.533c-0.36-0.188-0.716-0.362-1.074-0.544c0-0.362,0-0.712,0-1.077c-0.179,0-0.364,0-0.544,0
		c0-0.362,0-0.712,0-1.078c-0.182,0-0.361,0-0.541,0c0-2.329,0-4.658,0-6.995c-0.719-0.358-1.435-0.712-2.149-1.078
		c0-2.329,0-4.659,0-6.996c-0.184,0-0.363,0-0.544,0c0.185-0.355,0.363-0.711,0.544-1.077c-0.184,0-0.363,0-0.544,0
		c-0.18-1.435-0.362-2.87-0.538-4.3c-0.179,0-0.362,0-0.544,0c-0.362-1.077-0.712-2.156-1.075-3.229
		c-0.714-0.179-1.443-0.357-2.154-0.545c0,0.184,0,0.362,0,0.545c-0.179,0-0.361,0-0.541,0c0-0.179,0-0.357,0-0.545
		c-1.006-0.167-1.823,0.689-2.154,0.545c0-0.179,0-0.357,0-0.545c-3.701-0.021-2.885,0.604-3.768,3.232c-0.363,0-0.711,0-1.079,0
		c-0.54,4.484-1.076,8.967-1.616,13.455c-0.716,0.181-1.436,0.361-2.15,0.537c0,2.695,0,5.381,0,8.073
		c-0.543,0.365-1.078,0.715-1.622,1.077c0,0.716,0,1.434,0,2.155c-0.181,0-0.359,0-0.541,0c0.181,1.077,0.36,2.148,0.541,3.227
		c-0.181,0-0.359,0-0.541,0c0,1.073,0,2.151,0,3.229c-0.175,0-0.359,0-0.538,0c0,0.36,0,0.712,0,1.068c-0.186,0-0.365,0-0.543,0
		c-0.179,1.798-0.362,3.598-0.541,5.388c-0.184,0-0.365,0-0.543,0c0,2.328,0,4.665,0,6.995c0,5.927,0,11.845,0,17.769
		c0,0.715,0,1.435,0,2.149c0.178,0,0.36,0,0.543,0c0,0.184,0,0.362,0,0.547c-1.298,21.46-0.388,46.417-0.543,67.82
		c-2.041-0.368-11.448-1.373-13.996-0.543c0,0.183,0,0.368,0,0.543c-0.541,0-1.078,0-1.619,0c-0.184,0.368-0.362,0.71-0.541,1.077
		c-0.362,0-0.714,0-1.076,0c0,0.184,0,0.361,0,0.542c-0.541,0-1.079,0-1.619,0c0,0.175,0,0.356,0,0.543c-5.919,0-11.844,0-17.765,0
		c-0.182-4.853-0.364-9.7-0.544-14.528c-0.179,0-0.36,0-0.538,0c-0.534-1.906,0.527-4.172-0.543-5.389c0-0.174,0-0.355,0-0.54
		c-0.182,0-0.361,0-0.541,0c0,0.185,0,0.366,0,0.54c-0.544,0.185-1.079,0.367-1.62,0.545c0,0.716,0,1.439,0,2.151
		c-5.331-0.004-11.67-0.261-16.147,0.541c0.045-3.103,0.41-9.24,0-10.766c-0.183,0-0.361,0-0.54,0c0-0.89,0-1.793,0-2.689
		c-0.183,0-0.362,0-0.544,0c0-0.366,0-0.722,0-1.077c-0.18,0-0.361,0-0.54,0c-0.559,1.159-0.056,0.983-1.078,1.617
		c-0.657-1.476-1.782-4.23-1.073-6.999c0.179,0,0.359,0,0.541,0c-0.182-0.547-0.362-1.074-0.541-1.622c0.179,0,0.359,0,0.541,0
		c-0.182-2.514-0.362-5.025-0.541-7.529c-0.362,0-0.719,0-1.079,0c0,0.54,0,1.073,0,1.616c-0.661-0.741-0.949-7.935-0.543-9.69
		c0.041-0.159,0.734-0.152,0.543-1.076c-0.181,0-0.36,0-0.543,0c-0.179-0.903-0.361-1.793-0.541-2.696
		c-0.897-0.719-1.789-1.442-2.69-2.154c0.179-1.075,0.357-2.146,0.536-3.223c-0.179,0-0.357,0-0.536,0
		c-0.365-3.049-0.721-6.106-1.076-9.15c-0.367,0-0.718,0-1.078,0c-0.18,2.146-0.362,4.3-0.543,6.454c-0.181,0-0.362,0-0.538,0
		c0,0.712,0,1.437,0,2.151c-0.188,0-0.361,0-0.543,0c0,1.435,0,2.874,0,4.305c-0.545,0.361-1.075,0.714-1.622,1.077
		c-0.175,0.712-0.358,1.436-0.537,2.147c-0.182,0-0.366,0-0.544,0c0,3.955,0,7.896,0,11.845c-0.179,0-0.362,0-0.541,0
		c0-0.541,0-1.078,0-1.616c-0.182,0-0.367,0-0.541,0c-0.917,2.373-1.301,5.534-1.081,9.149c0.183,0.54,0.362,1.073,0.543,1.617
		c-0.184,0-0.363,0-0.543,0c-0.232,2.4,1.515,2.941-0.537,4.85c-0.463,0.604,0.071,0.079-0.544,0.541
		c-0.176-0.541-0.357-1.077-0.537-1.617c-0.363,0-0.715,0-1.076,0c0,4.662,0,9.329,0,13.991c-2.783,0.033-13.539,0.355-13.993,0
		c-3.515-0.182-2.032-1.095-3.774-2.694c-0.604-0.604,0.006-0.231-1.078-0.541c-0.497,1.305-0.575,3.339-0.538,5.378
		c-0.717,0.184-1.438,0.365-2.155,0.546c0.093,2.824,0.764,4.501,1.619,6.455c0,0.179,0,0.356,0,0.542c-0.181,0-0.358,0-0.544,0
		c0.533,2.525,0.494,4.967,0,7.532c-6.099,0-12.192,0-18.298,0c0-0.187,0-0.368,0-0.543c-0.36,0-0.711,0-1.077,0
		c0-0.187,0-0.363,0-0.542c-0.36,0-0.712,0-1.075,0c-1.388-0.732-2.408-1.758-4.303-2.15c-1.241-7.099-1.078-16.208-1.078-24.769
		c0-3.59,0-7.178,0-10.77c-0.179,0-0.36,0-0.543,0l0.543-0.54c-0.179-0.539-0.36-1.071-0.543-1.616c0.183,0,0.365,0,0.543,0
		c0-5.924,0-11.847,0-17.765c-0.565-2.182-0.573-11.595-0.543-17.765c-2.775-0.168-2.608-1.152-4.301-2.155
		c-0.351-1.673-0.917-2.407-1.074-4.304c-5.453-0.996-15.535-0.622-19.377,0c-0.027,4.265-2.062,6.112-4.848,7.536
		c0,17.04,0,34.09,0,51.134c0,5.822-0.685,19.365,0.097,23.023c-1.185,0.451-2.493,0.164-4.404,0.121c0-15.965,0-31.934,0-47.904
		c0-6.419-0.653-18.717,0-21.533c0-8.431,0-16.863,0-25.298c-0.184-1.076-0.362-2.149-0.544-3.227
		c0.719-4.123,1.441-8.257,2.153-12.378c-1.967,0-3.946,0-5.923,0c-0.014-1.92,0.086-3.651,0.545-4.848c-0.178,0-0.362,0-0.545,0
		c0-0.181,0-0.361,0-0.543c-0.711,0-1.434,0-2.15,0c-0.541-0.712-1.076-1.435-1.617-2.155c-0.18,0-0.358,0-0.543,0
		c0-0.356,0-0.711,0-1.068c-1.254-1.077-2.514-2.155-3.77-3.232c-1.128-1.558-0.839-2.14-2.691-3.231c0-0.178,0-0.356,0-0.541
		c-0.182,0-0.361,0-0.544,0c-2.87,3.406-5.741,6.814-8.614,10.229c-0.539,0-1.075,0-1.616,0c0,0.174,0,0.358,0,0.541
		c-0.184,0-0.366,0-0.544,0c0,1.617,0,3.228,0,4.85c-1.973,0-3.947,0-5.92,0c0.676,1.847,0.554,6.865,1.614,8.073
		c0,14.173,0,28.341,0,42.517c0,4.844,0,9.694,0,14.532c-1.434,0.54-2.873,1.077-4.301,1.618c-0.902,4.32-2.24,8.997-2.151,14.528
		c-0.544,0-1.077,0-1.622,0c0-0.182,0-0.356,0-0.541c-0.178,0-0.356,0-0.541,0c0.184-0.361,0.362-0.719,0.541-1.077
		c-0.178,0-0.356,0-0.541,0c0-1.618,0-3.223,0-4.845c-0.178,0-0.356,0-0.544,0c0-0.544,0-1.077,0-1.621
		c-0.356-0.175-0.708-0.358-1.067-0.541c0-0.711,0-1.436,0-2.147c-0.188,0-0.367,0-0.547,0c0.18-4.666,0.359-9.337,0.547-13.999
		c-0.188,0-0.367,0-0.547,0c0-1.256,0-2.512,0-3.769c-0.182,0-0.36,0-0.538,0c0-0.543,0-1.076,0-1.62c-0.188,0-0.366,0-0.544,0
		c0-0.542,0-1.07,0-1.615c-0.184,0-0.359,0-0.541,0c0-1.438,0-2.874,0-4.304c-0.362-0.185-0.717-0.361-1.077-0.542
		c0-0.712,0-1.441,0-2.154c-0.18,0-0.362,0-0.544,0c-0.747-1.636-0.907-3.183-2.151-4.302c-0.455-0.609,0.075-0.085-0.541-0.543
		c-1.212,2.635-2.835,5.757-3.767,8.617c0,1.436,0,2.869,0,4.301c-0.183,0-0.362,0-0.546,0c0,0.365,0,0.713,0,1.079
		c-0.356,0.182-0.711,0.363-1.075,0.543c0,6.997,0,14,0,20.996c-0.541,0.361-1.074,0.712-1.614,1.077
		c-0.185,2.329-0.363,4.666-0.545,6.996c-2.151,0.182-4.302,0.362-6.456,0.541c0,12.027,0,24.042,0,36.065
		c-1.5,0.344-2.571,1.225-3.769,1.619c-3.411,0-6.818,0-10.229,0c0-2.873,0-5.736,0-8.617c1.149-4.582,0.54-16.385,0.54-23.683
		c0-3.529,0.21-8.096-0.54-10.768c-1.266-4.569,2.084-9.553-0.541-12.382c-0.181-0.541-0.36-1.07-0.538-1.61
		c-3.054,0-6.102,0-9.151,0c0-0.187,0-0.365,0-0.546c-0.543,0-1.077,0-1.617,0c0-0.181,0-0.355,0-0.538
		c-1.76-0.561-6.936,0.096-8.077,0.538c0,0.185,0,0.362,0,0.546c-0.359,0-0.712,0-1.074,0c0,0.175,0,0.357,0,0.54
		c-0.545-0.183-1.079-0.365-1.619-0.54c0-0.187,0-0.365,0-0.546c-1.259,0.185-2.515,0.362-3.771,0.546c0,0.175,0,0.357,0,0.54
		c-0.541,0.18-1.074,0.357-1.615,0.536c0,6.289,0,12.562,0,18.846c-1.077,0-2.155,0-3.228,0c0,13.451,0,26.915,0,40.368
		c-5.33-0.02-16.493-0.924-20.455,0.547c0,6.631,0,13.277,0,19.918c0,3.334-0.37,7.76,0.544,10.225c103.689,0,207.416,0,311.12,0
		c0-42.695,0-85.407,0-128.107C313.024,307.561,312.84,307.561,312.662,307.561z M252.037,405.613h-2.764v-0.084
		c-0.043,0-0.078,0-0.116,0c-0.005-1.336,0.038-2.668,0.116-3.914v-3.381h0.383c0-0.008,0-0.008,0-0.012h0.777
		c0.003,0.004,0.017,0.004,0.025,0.012h1.583L252.037,405.613L252.037,405.613z M257.261,405.613h-2.915v-7.391h1.65
		c0.011,0.004,0.027,0.004,0.041,0.012h1.223v0.805c0.011,0.131,0.022,0.266,0.032,0.398v6.092c-0.009,0-0.021,0-0.032,0
		L257.261,405.613L257.261,405.613z"/>
	<path fill="#FFFFFF" stroke="#CED5DC" stroke-width="0.9318" stroke-linejoin="round" stroke-miterlimit="10" d="M69.944,479.48
		c-0.075-0.172-0.238-0.275-0.424-0.275h-0.075v-0.611c0-0.256-0.208-0.467-0.465-0.467h-0.1l-0.045-0.854
		c-3.768-5.996-10.709-8.791-21.842-8.791c-4.854,0-9.964,0.494-15.208,1.041c-0.239,0.027-0.417,0.225-0.417,0.463V533.5
		c0,0.254,0.208,0.467,0.465,0.467h8.064c0.26,0,0.467-0.213,0.467-0.467v-25.277c2.18,0.377,4.349,0.568,6.453,0.568
		c7.797,0,14.632-2.578,19.181-7.201l1.617-1.084c0.126-0.084,0.205-0.229,0.205-0.387l0.053-0.811l0.775-0.391
		c0.153-0.076,0.25-0.236,0.25-0.416v-0.604h0.078c0.257,0,0.466-0.211,0.466-0.465v-0.607h0.075c0.256,0,0.465-0.217,0.465-0.465
		v-1.156h0.075c0.256,0,0.466-0.209,0.466-0.465v-1.689h0.078c0.207,0,0.387-0.131,0.448-0.334
		C71.928,489.802,70.661,481.111,69.944,479.48z M62.244,490.421c-0.473,2.426-1.401,4.928-3.126,6.742
		c-1.394,1.469-3.296,2.445-5.17,3.137c-2.661,0.982-5.442,1.148-8.251,1.078c-0.875-0.021-1.76-0.041-2.636-0.123
		c-0.316-0.029-2.229-0.285-2.22-0.598v-24.762c-0.009,0.389,4.065-0.305,4.443-0.393c2.094-0.465,4.495,0.061,6.585,0.346
		c0.954,0.129,1.855,0.385,2.776,0.652c0.824,0.24,1.831,0.371,2.428,1.047c0.58,0.66,0.651,1.166,1.657,1.057
		c1.05,1.553,2.255,3.088,3.027,4.812C62.741,485.611,62.699,488.105,62.244,490.421z"/>
</g>
</svg>
