<?xml version="1.0" encoding="utf-8"?>
<!-- Generator: Adobe Illustrator 15.0.0, SVG Export Plug-In . SVG Version: 6.00 Build 0)  -->
<!DOCTYPE svg PUBLIC "-//W3C//DTD SVG 1.1//EN" "http://www.w3.org/Graphics/SVG/1.1/DTD/svg11.dtd">
<svg version="1.1" id="Layer_1" xmlns="http://www.w3.org/2000/svg" xmlns:xlink="http://www.w3.org/1999/xlink" x="0px" y="0px"
	 width="708.66px" height="765.351px" viewBox="0 0 708.66 765.351" enable-background="new 0 0 708.66 765.351"
	 xml:space="preserve">
<g>
	<g>
		<path fill="#FFFFFF" stroke="#CED5DC" stroke-width="0.9318" stroke-linejoin="round" stroke-miterlimit="10" d="M376.871,229.51
			h-30.148c-0.516,0-0.932,0.419-0.932,0.932c0,9.759,0,19.841,0.164,29.804c-1.298,0.06-2.251,0.238-3.158,0.582
			c-0.363,0.139-0.601,0.483-0.601,0.872v130.263l-0.269,16.394l-0.27,16.416c0,0.823-0.128,2.028-0.267,3.319
			c-0.42,3.888-0.649,6.815,0.263,8.3c-0.006,0.626-0.022,1.289-0.042,1.973c-0.083,3.102-0.176,6.61,0.644,8.823
			c0.138,0.364,0.484,0.61,0.871,0.61h363.334c0.512,0,0.932-0.421,0.932-0.931v-30.153c0-0.24-0.099-0.483-0.272-0.659
			c-0.176-0.179-0.405-0.272-0.659-0.272c0,0,0,0-0.005,0h-0.002c-2.553,0-4.903-0.15-6.701-0.408
			c-0.233-1.32-0.631-2.395-1.021-3.436c-0.466-1.23-0.903-2.402-1.02-3.902c-0.028-0.277-0.159-0.531-0.386-0.691
			c-0.159-0.113-0.354-0.182-0.542-0.182c-0.077,0-0.148,0.007-0.228,0.036l-1.002,0.24v-1.369l1.009,0.244
			c0.076,0.025,0.144,0.033,0.221,0.033c0.207,0,0.405-0.077,0.572-0.208c0.23-0.174,0.36-0.443,0.36-0.725v-4.302
			c0-0.517-0.419-0.932-0.933-0.932h-0.775c-0.028-0.044-0.051-0.088-0.079-0.128c0.036-0.309,0.287-1.008,0.48-1.536
			c0.669-1.816,1.652-4.546,0.116-6.482c-0.164-0.48-0.323-0.961-0.483-1.442c-0.106-0.315-0.376-0.553-0.704-0.621l-0.533-0.106
			l-1.441-0.291c-0.041-0.16-0.125-0.313-0.244-0.43c-0.179-0.174-0.408-0.265-0.657-0.265c-0.007,0-0.007,0-0.01,0
			c-5.528,0.036-6.68,2.529-7.898,5.169c-0.41,0.905-0.848,1.837-1.481,2.776c-0.175,0.255-0.509,0.524-0.884,0.815
			c-0.314,0.24-0.674,0.517-1.01,0.852c0.19-1.47,0.467-2.901,0.692-3.229c0.153-0.171,0.219-0.368,0.227-0.597
			c0.021-2.727-0.347-3.702-1.187-5.289c-0.153-0.298-0.456-0.487-0.794-0.496l-0.962-0.035c-0.604-0.029-1.27-0.059-1.914-0.059
			c-1.938,0-3.044,0.259-3.709,0.882c-0.816,1.096-0.36,2.337,0.171,3.785c0.411,1.136,0.877,2.402,0.778,3.523
			c-0.406,0.094-0.702,0.466-0.702,0.902v1.034l-0.255,0.131l-0.31,0.153c-0.317,0.16-0.519,0.479-0.519,0.837v2.147
			c0,0.382,0.227,0.701,0.541,0.852v0.233c0,0.379,0.229,0.698,0.542,0.847v0.23c0,0.437,0.296,0.8,0.702,0.902l0.167,0.855
			l0.229,1.121c0.077,0.411,0.426,0.718,0.857,0.743c0.131,0.338,0.244,0.669,0.363,0.989c0.229,0.681,0.466,1.361,0.858,1.998
			h-0.618c-0.473,0-0.859,0.35-0.925,0.798l-0.263,0.084l-0.71,0.239c-0.258,0.08-0.465,0.27-0.571,0.517l-0.152,0.379
			c-0.375,0.852-0.719,1.679-0.902,2.869l-0.051,0.007c-0.507,0.015-1.05,0.036-1.576,0.036c-1.271,0-1.849-0.139-2.108-0.258
			c0.199-0.048,0.452-0.077,0.881-0.112c0.32-0.022,0.598-0.216,0.746-0.496c0.147-0.283,0.142-0.622-0.018-0.896
			c-0.554-0.962-1.171-1.642-2.032-2.209v-2.406c0.201-0.091,0.361-0.251,0.453-0.451h0.771c0.517,0,0.933-0.415,0.933-0.932v-1.074
			c0-0.396-0.252-0.757-0.635-0.885l-0.38-0.123c-0.204-0.069-0.397-0.139-0.609-0.209v-0.396c0-0.375-0.222-0.699-0.535-0.849
			v-7.225c0-0.379-0.229-0.699-0.541-0.852v-0.771c0-0.379-0.228-0.699-0.542-0.846v-0.232c0-0.378-0.23-0.699-0.545-0.852v-0.765
			c0-0.371-0.221-0.703-0.537-0.852v-0.772c0-0.382-0.226-0.697-0.546-0.848v-0.768c0-0.379-0.22-0.698-0.535-0.852v-2.927
			c0-0.277-0.125-0.539-0.334-0.71l-1.621-1.343l-1.507-1.26c-0.822-1.312-0.867-3.096-0.852-5.285
			c0.003-0.412-0.264-0.778-0.664-0.897c-0.232-0.07-0.391-0.112-0.522-0.138c-0.051-0.049-0.096-0.104-0.169-0.168
			c-0.166-0.167-0.389-0.266-0.633-0.272c-0.276-0.007-0.537-0.012-0.787-0.012c-4.517,0-4.996,1.465-5.459,4.052
			c-0.102,0.567-0.219,1.189-0.4,1.887c-1.783,0.037-3.513,0.211-5.38,0.551c-0.377,0.064-0.677,0.355-0.749,0.724
			c-0.455,2.253-1.317,3.185-2.311,4.27c-0.507,0.554-1.067,1.169-1.599,1.98h-9.134l-0.097-0.207l-0.183-0.354
			c-0.096-0.196-0.249-0.35-0.436-0.433v-0.237c0-0.394-0.25-0.742-0.605-0.874c-0.072-0.182-0.197-0.342-0.367-0.444
			c-0.149-0.094-0.332-0.148-0.507-0.148c-0.13,0-0.261,0.029-0.385,0.076c-0.857,0.39-2.17,0.412-3.685,0.444h-0.015l-0.065-0.298
			l-0.327-1.632c-0.081-0.385-0.393-0.691-0.79-0.738c-0.703-1.595-2.262-2.49-4.655-2.669l-0.467-5.105
			c-0.039-0.388-0.309-0.716-0.692-0.817c-0.738-0.197-0.981-0.399-1.363-0.729c-0.178-0.15-0.376-0.317-0.634-0.495v-0.566
			c0-0.515-0.414-0.933-0.933-0.933h-1.077c-0.474,0-0.874,0.361-0.925,0.834c-0.173,1.637-0.497,1.774-2.029,2.428
			c-0.314,0.133-0.627,0.467-0.667,0.805l-0.248,2.515l-0.217,2.126l-2.254,0.29l-1.313,0.167c-0.36,0.044-0.655,0.283-0.771,0.634
			l-1.009,3.021l-0.391,1.172c-0.057,0-0.112,0-0.174,0c-2.541,0-4.31,0.356-5.545,2.093c-0.359-0.054-0.533-0.098-0.764-0.192
			l-0.255-15.149l-0.266-15.979l0.273-8.878l0.262-8.301c0.007-0.249-0.084-0.495-0.262-0.678c-0.091-0.097-0.211-0.176-0.335-0.225
			l-0.483-7.264c-0.025-0.352-0.233-0.646-0.546-0.782v-1.302c0-0.377-0.224-0.696-0.54-0.846v-0.776c0-0.376-0.226-0.7-0.545-0.846
			v-0.775c0-0.473-0.356-0.864-0.816-0.924c-0.325-0.99-0.581-2.146-0.851-3.358c-0.634-2.899-1.298-5.89-3.185-7.477v-0.082
			c0-0.515-0.412-0.932-0.934-0.932h-0.541c-0.343,0-0.655,0.186-0.816,0.487c-0.188,0.343-0.437,0.68-0.703,1.024
			c-0.785,1.063-1.771,2.387-1.563,4.354c0.006,0.061,0.018,0.121,0.035,0.178c-0.026,0.085-0.04,0.174-0.04,0.268v0.23
			c-0.315,0.149-0.546,0.469-0.546,0.847v0.502l-0.55,0.276c-0.312,0.157-0.519,0.48-0.519,0.839v0.775
			c-0.321,0.15-0.543,0.471-0.543,0.847v0.231c-0.32,0.149-0.543,0.47-0.543,0.844v0.772c-0.299,0.138-0.518,0.425-0.543,0.771
			c-0.162,2.073-0.323,4.135-0.48,6.199c-0.36,0.134-0.604,0.473-0.604,0.871v0.504l-0.55,0.276
			c-0.319,0.156-0.526,0.48-0.526,0.837v13.461v26.604c-0.317,0.149-0.543,0.47-0.543,0.846v4.442h-2.519l-0.394-5.254
			c0.081-0.049,0.161-0.112,0.233-0.184c0.175-0.196,0.258-0.458,0.233-0.719l-0.269-2.692l-0.264-2.689
			c-0.032-0.28-0.185-0.532-0.415-0.689l-1.172-0.775l-0.025-0.014v-8.22c0.44-0.469,0.826-1.265,0.503-2.322
			c-0.076-0.26-0.267-0.466-0.503-0.573v-0.233c0-0.354-0.2-0.673-0.52-0.833l-0.706-0.363l-0.809-2.685l-0.655-2.179v-5.244
			c0-0.376-0.229-0.7-0.546-0.846v-5.076c0-0.377-0.227-0.697-0.539-0.847v-5.073c0-0.45-0.319-0.823-0.739-0.913
			c-0.124-0.492-0.243-0.984-0.375-1.476c-0.069-0.251-0.232-0.462-0.457-0.586c-0.131-0.073-0.293-0.111-0.445-0.111
			c-0.094,0-0.196,0.015-0.287,0.048l-1.612,0.541c-0.32,0.108-0.576,0.387-0.634,0.725c-0.052,0.264-0.102,0.401-0.132,0.465
			c-0.256,0.168-0.417,0.459-0.417,0.775v4.529c-0.324,0.148-0.543,0.469-0.543,0.846v6.693c-0.321,0.149-0.543,0.47-0.543,0.843
			v4.532c-0.319,0.149-0.543,0.469-0.543,0.846v1.309c-0.247,0.117-0.435,0.334-0.512,0.615l-0.377,1.469
			c-0.417,0.089-0.734,0.463-0.734,0.913v0.578l-1.204,0.8c-0.179,0.12-0.309,0.303-0.371,0.509
			c-0.346,1.144,0.002,1.959,1.029,2.426v7.764c-0.32,0.149-0.539,0.469-0.539,0.842v0.574l-0.377,0.251l-0.834,0.543
			c-0.251,0.173-0.411,0.462-0.411,0.774v10.729l-1.632,0.812c-0.415,0.207-0.628,0.702-0.479,1.139l0.646,1.943l0.431,1.297
			c0.08,0.247,0.262,0.443,0.493,0.549v11.753c-0.237-0.145-0.522-0.298-0.989-0.442c-0.232-0.886-0.592-1.689-0.923-2.406
			c-0.204-0.456-0.397-0.878-0.543-1.307c-0.175-9.097-0.351-18.206-0.532-27.305v-58.1c0-0.248-0.096-0.486-0.274-0.664
			c-0.176-0.172-0.412-0.268-0.656-0.268c-0.005,0-0.005,0-0.011,0l-0.863,0.003c-1.428,0-2.985-0.042-4.117-0.306v-12.997
			c0.32-0.15,0.542-0.471,0.542-0.843v-3.771c0-0.373-0.222-0.697-0.542-0.843v-2.93c0-0.378-0.222-0.701-0.542-0.847v-1.308
			c0-0.376-0.222-0.7-0.542-0.846v-1.302c0-0.377-0.23-0.696-0.546-0.846v-1.312c0-0.377-0.227-0.7-0.547-0.847v-1.847
			c0-0.376-0.225-0.703-0.541-0.852v-0.23c0-0.265-0.113-0.521-0.313-0.698l-2.552-2.261l-2.213-1.966
			c-0.368-0.525-0.719-1.247-1.102-2.012c-0.595-1.203-1.208-2.44-2-3.247c-0.037-0.146-0.055-0.215-0.062-0.256
			c-0.025-0.235-0.229-0.598-0.403-0.751c-0.048-0.035-0.113-0.1-0.241-0.23c-0.179-0.175-0.413-0.271-0.661-0.271
			c-0.084,0-0.175,0.011-0.256,0.036c-0.323,0.096-0.574,0.359-0.651,0.69c-0.792,3.475-3.31,6.326-5.137,8.168
			c-0.257,0.256-0.562,0.498-0.868,0.744c-0.732,0.576-1.559,1.234-2.007,2.215c-0.037,0.078-0.062,0.164-0.073,0.249l-0.272,1.882
			l-0.165,1.13c-0.377,0.119-0.653,0.47-0.653,0.891v1.309c-0.32,0.149-0.547,0.47-0.547,0.847v2.383
			c-0.315,0.147-0.538,0.469-0.538,0.844v14.772c-0.32,0.147-0.538,0.469-0.538,0.847v6.231c-1.001,0.2-1.875,0.371-3.305,0.371
			c-0.388,0-0.775,0.247-0.934,0.594c-0.363,0.131-0.619,0.473-0.619,0.88v18.442h-9.833c-0.52,0-0.933,0.416-0.933,0.931v18.001
			c-0.32,0.148-0.542,0.469-0.542,0.847v1.312c-0.317,0.147-0.54,0.469-0.54,0.847v1.038l-0.289,0.146l-0.267,0.133
			c-0.318,0.156-0.517,0.481-0.517,0.835v2.297h-3.666l-0.9-5.078l-0.582-3.297c-0.076-0.447-0.464-0.773-0.912-0.773h-1.077
			c-0.513,0-0.933,0.418-0.933,0.933v3.999c-0.316,0.149-0.544,0.47-0.544,0.846v30.285H500.5v-94.35
			c0-0.371-0.223-0.697-0.542-0.841v-0.775c0-0.515-0.412-0.932-0.934-0.932h-0.042l-0.261-0.396l-0.541-0.808
			c-0.116-0.176-0.283-0.306-0.484-0.37l-0.672-0.224l-0.307-0.101v-0.402c0-0.377-0.219-0.7-0.542-0.846v-5.08
			c0-0.372-0.221-0.697-0.538-0.842v-0.235c0-0.295-0.14-0.571-0.383-0.746l-0.772-0.576l-1.008-0.758v-0.611
			c0-0.376-0.222-0.697-0.542-0.846v-3.462c0-0.31-0.153-0.604-0.415-0.775l-0.466-0.313l-0.729-0.489v-0.577
			c0-0.376-0.224-0.701-0.546-0.846v-2.92c0-0.449-0.313-0.822-0.734-0.912l-0.371-1.476c-0.078-0.318-0.33-0.571-0.649-0.664
			c-0.88-0.253-0.948-0.381-1.085-0.622c-0.152-0.281-0.385-0.68-0.968-1.142l-1.408-18.241l-0.179-2.322
			c-0.036-0.484-0.439-0.855-0.927-0.855h-1.614c-0.516,0-0.924,0.409-0.932,0.918c-0.031,1.899,0.076,3.855,0.182,5.748
			c0.229,4.254,0.452,8.269-0.681,11.737c-0.034,0.095-0.052,0.19-0.052,0.291v1.309c-0.246,0.117-0.441,0.341-0.519,0.622
			l-0.459,1.835l-0.807,0.611l-1.079,0.812c-0.229,0.175-0.373,0.451-0.373,0.743v0.23c-0.253,0.119-0.449,0.346-0.515,0.634
			l-1.007,4.339l-0.448,1.956c-0.423,0.093-0.729,0.466-0.729,0.908v0.233c-0.263,0.122-0.457,0.36-0.528,0.659l-0.235,1.208
			l-0.153,0.762c-0.327,0.082-0.59,0.341-0.677,0.68l-0.217,0.856l-0.153,0.608c-0.38,0.079-0.671,0.373-0.733,0.762l-0.286,1.762
			l-0.117,0.724c-0.394,0.111-0.68,0.47-0.68,0.893v3.837c-0.343,0.246-0.667,0.627-0.899,1.335
			c-0.576,0.185-0.863,0.373-1.209,0.614c-0.153,0.111-0.335,0.235-0.627,0.392c-0.188,0.1-0.341,0.271-0.426,0.473
			c-1.19,2.972-1.168,7.358-1.153,11.596l0.006,1.674v23.144v48.409l-0.556,0.279c-0.295,0.149-0.49,0.444-0.514,0.776l-0.521,7.636
			l-0.029,0.434l-0.003,14.58l-1.397-0.233c-0.11-0.393-0.473-0.685-0.898-0.685h-0.725c-0.536-0.728-0.59-3.385-0.636-5.033
			c-0.039-1.78-0.078-3.454-0.441-4.562c-0.08-0.239-0.263-0.443-0.488-0.542v-0.761c0-0.193-0.069-0.384-0.176-0.544l-1.339-1.875
			l-1.357-1.899c-0.175-0.242-0.455-0.388-0.754-0.388h-0.821c-0.649-0.385-1.992-1.228-2.557-1.637v-3.884
			c0-0.373-0.224-0.696-0.542-0.842v-0.775c0-0.157-0.039-0.313-0.116-0.456c-0.106-0.201-0.258-0.309-0.441-0.454
			c-0.164-0.114-0.524-0.389-0.612-0.577c-0.158-0.316-0.481-0.522-0.839-0.522h-1.621c-0.451,0-0.837,0.324-0.916,0.768
			c-0.051,0.257-0.099,0.392-0.128,0.456c-0.255,0.167-0.422,0.458-0.422,0.782v4.809l-0.077,0.036l-0.488,0.241
			c-0.091,0.05-0.182,0.113-0.253,0.191c-0.67,0.697-1.428,1.171-2.242,1.677c-1.478,0.928-3.164,1.976-3.873,4.499
			c-0.954,1.574-1.442,7.012-1.632,9.688h-1.966v-22.752c0-0.514-0.414-0.932-0.932-0.932h-14.137v-5.527
			c0-0.476-0.361-0.875-0.838-0.928c-0.888-0.093-1.056-0.149-1.492-0.32c-0.046-0.225-0.071-0.466-0.095-0.73
			c-0.059-0.475-0.107-1.012-0.32-1.581c-0.087-0.234-0.261-0.417-0.488-0.519v-0.775c0-0.355-0.204-0.681-0.524-0.837l-0.544-0.273
			v-3.727c0-0.444-0.313-0.827-0.744-0.914l-1.223-0.243l-0.725-0.145v-5.69c0-0.448-0.32-0.823-0.738-0.914l-0.139-0.545
			l-0.229-0.924c-0.068-0.261-0.236-0.48-0.488-0.603l-0.695-0.348l-0.435-1.739c-0.074-0.281-0.26-0.508-0.519-0.623v-1.302
			c0-0.416-0.271-0.775-0.656-0.892l-0.297-2.067l-0.138-0.95c-0.047-0.344-0.277-0.622-0.583-0.739
			c-0.117-0.297-0.387-0.521-0.706-0.58c-0.059-0.009-0.102-0.017-0.163-0.017c-0.39,0-0.735,0.241-0.871,0.612l-3.599,9.766
			c-0.029,0.004-0.051,0.008-0.065,0.008c-0.234,0.028-0.59,0.23-0.74,0.405c-0.037,0.045-0.094,0.116-0.225,0.242
			c-1.107,1.234-0.874,2.979-0.677,4.522c0.113,0.911,0.232,1.856,0.064,2.455l-0.229,0.116l-1.618,0.805
			c-0.314,0.156-0.519,0.48-0.519,0.835v2.387c-0.27,0.125-0.472,0.38-0.528,0.693l-0.52,3.104
			c-0.222,0.432-0.594,0.936-0.969,1.428c-0.282,0.376-0.566,0.757-0.818,1.147h-0.542c-0.517,0-0.932,0.417-0.932,0.932v5.527
			h-13.6c-0.518,0-0.933,0.417-0.933,0.933v22.295c-0.203,0.086-0.371,0.251-0.457,0.458h-3.051l0.543-43.712l1.065-86.689
			c0.008-0.511-0.394-0.932-0.912-0.944c-1.102-0.018-1.733-0.107-2.316-0.274v-30.017
			C377.801,229.929,377.387,229.51,376.871,229.51L376.871,229.51z"/>
	</g>
	<g>
		<path fill="#FFFFFF" stroke="#CED5DC" stroke-width="0.9318" stroke-linejoin="round" stroke-miterlimit="10" d="M197.088,416.618
			c-0.259,0-0.466-0.214-0.466-0.465l-0.004-5.918c0-0.125,0.048-0.24,0.137-0.328c0.091-0.095,0.206-0.139,0.33-0.139h0.078v-0.08
			c0-0.182,0.099-0.342,0.256-0.419l1.077-0.534c0.068-0.037,0.136-0.051,0.204-0.051c0.061,0,0.12,0.014,0.177,0.036
			c0.122,0.051,0.217,0.152,0.26,0.277c0.203,0.553,0.221,1.732,0.238,3.086c0.016,1.044,0.039,2.432,0.188,3.051h0.215
			c0.259,0,0.466,0.211,0.466,0.465v0.547c0,0.255-0.208,0.465-0.466,0.465h-2.689V416.618z"/>
		<path fill="#FFFFFF" stroke="#CED5DC" stroke-width="0.9318" stroke-linejoin="round" stroke-miterlimit="10" d="M198.697,409.158
			c0.384,1.062,0.019,5.524,0.543,6.453c0.18,0,0.362,0,0.541,0c0,0.182,0,0.36,0,0.542c-0.898,0-1.792,0-2.693,0
			c0-1.973,0-3.949-0.003-5.918c0.177,0,0.363,0,0.543,0c0-0.183,0-0.361,0-0.543C197.985,409.513,198.339,409.332,198.697,409.158
			 M198.697,408.225c-0.141,0-0.279,0.036-0.407,0.095l-0.655,0.323l-0.426,0.216c-0.214,0.108-0.376,0.29-0.458,0.513
			c-0.123,0.044-0.234,0.113-0.329,0.211c-0.173,0.179-0.271,0.412-0.271,0.666l0.004,5.919c0,0.513,0.417,0.932,0.932,0.932h2.693
			c0.515,0,0.931-0.419,0.931-0.932v-0.557c0-0.455-0.324-0.834-0.754-0.914c-0.083-0.674-0.102-1.842-0.113-2.613
			c-0.025-1.62-0.051-2.636-0.268-3.239c-0.089-0.244-0.281-0.451-0.526-0.542C198.934,408.247,198.819,408.225,198.697,408.225
			L198.697,408.225z"/>
	</g>
	<g>
		<path fill="#FFFFFF" stroke="#CED5DC" stroke-width="0.9318" stroke-linejoin="round" stroke-miterlimit="10" d="M207.306,417.154
			c-0.129,0-0.252-0.055-0.342-0.149c-0.086-0.094-0.136-0.226-0.125-0.356l0.545-6.996c0.016-0.204,0.157-0.371,0.351-0.415
			l2.145-0.531c0.038-0.008,0.075-0.015,0.113-0.015c0.182,0,0.359,0.098,0.432,0.266c1.056,2.33,1.198,4.271,1.114,7.735
			c-0.002,0.247-0.212,0.454-0.465,0.454L207.306,417.154L207.306,417.154z"/>
		<path fill="#FFFFFF" stroke="#CED5DC" stroke-width="0.9318" stroke-linejoin="round" stroke-miterlimit="10" d="M210.002,409.158
			c0.992,2.19,1.156,4.04,1.073,7.534c-1.255,0-2.513,0-3.773,0c0.184-2.334,0.362-4.667,0.544-7
			C208.572,409.506,209.286,409.332,210.002,409.158 M210.002,408.225c-0.075,0-0.15,0.008-0.22,0.028l-2.162,0.54
			c-0.388,0.094-0.67,0.432-0.702,0.837l-0.271,3.494l-0.27,3.493c-0.021,0.253,0.069,0.515,0.243,0.7
			c0.177,0.196,0.425,0.298,0.686,0.298h3.772c0.507,0,0.921-0.4,0.933-0.91c0.078-3.472-0.075-5.532-1.156-7.935
			C210.699,408.432,210.364,408.225,210.002,408.225L210.002,408.225z"/>
	</g>
	<g>
		<path fill="#FFFFFF" stroke="#CED5DC" stroke-width="0.9318" stroke-linejoin="round" stroke-miterlimit="10" d="M205.134,417.154
			c-1.46-0.076-1.923-0.229-2.832-0.571c-0.179-0.069-0.303-0.24-0.303-0.437c0-2.286,0.19-4.551,0.545-6.537
			c0.042-0.227,0.231-0.386,0.458-0.386h1.618c0.149,0,0.283,0.072,0.372,0.185c0.08,0.105,0.142,0.193,0.186,0.27
			c0.072,0.044,0.15,0.099,0.253,0.175c0.12,0.083,0.188,0.229,0.188,0.375v6.461c0,0.127-0.053,0.251-0.146,0.339
			c-0.084,0.08-0.203,0.127-0.321,0.127C205.153,417.154,205.145,417.154,205.134,417.154z"/>
		<path fill="#FFFFFF" stroke="#CED5DC" stroke-width="0.9318" stroke-linejoin="round" stroke-miterlimit="10" d="M204.624,409.688
			c0.459,0.611-0.075,0.088,0.538,0.539c0,2.154,0,4.306,0,6.461c-1.415-0.07-1.828-0.215-2.692-0.542
			c0-2.461,0.22-4.674,0.54-6.458C203.545,409.688,204.086,409.688,204.624,409.688 M204.624,408.756h-1.617
			c-0.453,0-0.841,0.324-0.919,0.769c-0.361,2.017-0.551,4.306-0.551,6.621c0,0.386,0.239,0.728,0.601,0.862
			c0.932,0.359,1.445,0.535,2.974,0.604c0.015,0,0.029,0,0.046,0c0.238,0,0.469-0.084,0.64-0.252
			c0.187-0.181,0.292-0.422,0.292-0.681v-6.453c0-0.299-0.142-0.575-0.376-0.75c-0.068-0.055-0.132-0.095-0.191-0.138
			c-0.047-0.076-0.1-0.14-0.153-0.211C205.193,408.895,204.918,408.756,204.624,408.756L204.624,408.756z"/>
	</g>
	<g>
		<path fill="#FFFFFF" stroke="#CED5DC" stroke-width="0.9318" stroke-linejoin="round" stroke-miterlimit="10" d="M129.801,468.502
			h-8.61c-0.513,0-0.932,0.416-0.932,0.932v25.986H91.443v-25.986c0-0.516-0.417-0.932-0.932-0.932h-8.617
			c-0.514,0-0.932,0.416-0.932,0.932v64.061c0,0.513,0.418,0.931,0.932,0.931h8.617c0.515,0,0.932-0.418,0.932-0.931v-28.673h28.816
			v28.673c0,0.513,0.418,0.931,0.932,0.931h8.61c0.516,0,0.933-0.418,0.933-0.931v-64.061
			C130.733,468.925,130.316,468.502,129.801,468.502L129.801,468.502z"/>
	</g>
	<g>
		<path fill="#FFFFFF" stroke="#CED5DC" stroke-width="0.9318" stroke-linejoin="round" stroke-miterlimit="10" d="M143.797,533.959
			c-0.257,0-0.467-0.207-0.467-0.465v-64.061c0-0.258,0.209-0.467,0.467-0.467h8.617c0.258,0,0.467,0.209,0.467,0.467v64.061
			c0,0.258-0.208,0.465-0.467,0.465H143.797z"/>
	</g>
	<g>
		<path fill="#FFFFFF" stroke="#CED5DC" stroke-width="0.9318" stroke-linejoin="round" stroke-miterlimit="10" d="M166.404,533.959
			c-0.258,0-0.466-0.207-0.466-0.465v-64.061c0-0.258,0.208-0.467,0.466-0.467h8.612c0.258,0,0.465,0.209,0.465,0.467v56.594h26.987
			c0.257,0,0.465,0.211,0.465,0.466v7.001c0,0.258-0.208,0.465-0.465,0.465H166.404z"/>
		<path fill="#FFFFFF" stroke="#CED5DC" stroke-width="0.9318" stroke-linejoin="round" stroke-miterlimit="10" d="M175.017,468.502
			h-8.612c-0.515,0-0.932,0.416-0.932,0.932v64.061c0,0.513,0.417,0.931,0.932,0.931h36.065c0.515,0,0.931-0.418,0.931-0.931v-7.001
			c0-0.517-0.417-0.932-0.931-0.932h-26.521v-56.128C175.948,468.925,175.532,468.502,175.017,468.502L175.017,468.502z"/>
	</g>
	<g>
		<path fill="#FFFFFF" stroke="#CED5DC" stroke-width="0.9318" stroke-linejoin="round" stroke-miterlimit="10" d="M220.232,469.434
			c0,19.02,0,38.044,0,57.06c9.148,0,18.302,0,27.452,0c0,2.332,0,4.667,0,7.001c-12.021,0-24.043,0-36.065,0
			c0-21.356,0-42.709,0-64.061C214.494,469.434,217.359,469.434,220.232,469.434"/>
	</g>
	<g>
		<path fill="#FFFFFF" stroke="#CED5DC" stroke-width="0.9318" stroke-linejoin="round" stroke-miterlimit="10" d="M262.75,533.97
			c-0.257,0-0.466-0.207-0.466-0.464v-26.988h-0.075c-0.214,0-0.402-0.146-0.455-0.357l-0.484-1.943l-0.882-0.443
			c-0.156-0.076-0.257-0.232-0.257-0.408v-0.612h-0.075c-0.258,0-0.465-0.207-0.465-0.465v-1.076l-0.939-0.743l-0.11-1.107
			l-0.85-0.429c-0.122-0.062-0.212-0.168-0.241-0.307l-0.448-1.788h-0.179c-0.256,0-0.465-0.214-0.465-0.465v-1.078l-0.936-0.745
			l-0.107-1.103l-0.853-0.426c-0.158-0.082-0.26-0.237-0.26-0.416v-0.608h-0.074c-0.257,0-0.465-0.207-0.465-0.465v-1.074
			l-0.937-0.742l-0.106-1.106l-0.847-0.43c-0.156-0.076-0.26-0.24-0.26-0.416v-0.625h-0.079c-0.259,0-0.466-0.215-0.466-0.465
			v-1.079l-0.941-0.746l-0.107-1.104l-0.847-0.429c-0.156-0.08-0.257-0.241-0.257-0.415v-0.612h-0.075
			c-0.255,0-0.465-0.207-0.465-0.465v-0.604h-0.074c-0.256,0-0.467-0.208-0.467-0.466v-1.078l-0.942-0.756l-0.105-1.092
			l-0.849-0.423l-0.842-2.111l-0.356-1.07h-0.205c-0.257,0-0.466-0.212-0.466-0.465v-0.787l-0.814-0.407
			c-0.161-0.08-0.262-0.233-0.262-0.415v-0.612h-0.073c-0.203,0-0.381-0.123-0.445-0.315l-0.54-1.621
			c-0.049-0.145-0.025-0.298,0.064-0.418c0.085-0.123,0.228-0.2,0.381-0.2h9.695c0.185,0,0.356,0.116,0.427,0.284
			c0.365,0.866,0.886,1.702,1.383,2.497c0.264,0.423,0.522,0.832,0.744,1.229l0.05,1.009l0.835,0.418l1.189,3.178h0.219
			c0.257,0,0.466,0.208,0.466,0.467v0.607h0.078c0.217,0,0.399,0.146,0.456,0.356l0.447,1.799h0.175c0.212,0,0.399,0.146,0.452,0.35
			l0.454,1.805h0.175c0.257,0,0.466,0.207,0.466,0.466v0.612h0.078c0.257,0,0.465,0.207,0.465,0.465v0.605h0.075
			c0.257,0,0.466,0.207,0.466,0.465v0.611h0.078c0.256,0,0.467,0.208,0.467,0.468v0.609h0.073c0.201,0,0.378,0.124,0.444,0.313
			l0.969,2.919h0.209c0.257,0,0.465,0.204,0.465,0.466v1.078c0.239,0.335,0.556,0.878,0.875,1.441
			c0.95,1.666,1.931,3.377,2.561,5.369c1.089-1.099,1.607-2.5,2.156-3.973c0.324-0.869,0.648-1.745,1.063-2.518
			c0.083-0.153,0.239-0.247,0.412-0.247h0.075v-0.611c0-0.259,0.208-0.467,0.466-0.467h0.075v-0.612
			c0-0.258,0.208-0.465,0.466-0.465h0.078v-0.607c0-0.259,0.208-0.467,0.467-0.467h0.177l0.448-1.801
			c0.051-0.208,0.234-0.353,0.449-0.353h0.079v-0.619c0-0.26,0.209-0.468,0.466-0.468h0.078v-0.607c0-0.255,0.21-0.465,0.468-0.465
			h0.073v-0.612c0-0.254,0.21-0.466,0.467-0.466h0.07v-0.611c0-0.255,0.209-0.465,0.466-0.465h0.18l0.968-2.905l1.107-0.692
			l0.497-1.973c0.402-0.794,0.82-1.473,1.246-2.177c1.006-1.646,2.041-3.352,2.5-5.357c0.049-0.219,0.234-0.365,0.454-0.365h9.695
			c0.142,0,0.279,0.07,0.363,0.176c0.091,0.116,0.122,0.262,0.086,0.4c-0.286,1.183-0.873,1.979-1.434,2.752
			c-0.268,0.363-0.538,0.729-0.769,1.135l0.061,0.856c0,0.174-0.098,0.335-0.253,0.411l-0.888,0.443l-0.488,1.944
			c-0.035,0.131-0.123,0.24-0.242,0.301l-1.07,0.544l-0.416,1.667l-0.43,1.296l-0.907,0.604l-0.405,0.204l-0.624,2.308l-0.22,0.647
			l-1.049,0.687v0.788c0,0.25-0.21,0.466-0.467,0.466h-0.078v0.61c0,0.175-0.096,0.335-0.256,0.411l-1.076,0.543l-0.844,2.974
			l-1.111,0.684l-0.494,1.975c-0.034,0.122-0.123,0.235-0.247,0.304l-1.084,0.536l-0.839,2.96l-1.11,0.69l-0.492,1.967
			c-0.035,0.131-0.12,0.239-0.243,0.301l-1.086,0.545l-0.3,1.346l-0.538,1.616l-0.756,0.522l-0.289,0.143v0.791
			c0,0.254-0.207,0.466-0.465,0.466h-0.075v27.526c0,0.257-0.208,0.464-0.466,0.464H262.75z"/>
	</g>
	<g>
		<path fill="#FFFFFF" stroke="#CED5DC" stroke-width="0.9318" stroke-linejoin="round" stroke-miterlimit="10" d="M448.998,468.502
			h-8.616c-0.514,0-0.93,0.416-0.93,0.932v32.308v1.545c-0.015,7.257-0.025,14.115,2.229,19.275c0.131,0.3,0.403,0.507,0.722,0.544
			l0.247,0.757l0.618,1.845c0.077,0.232,0.237,0.414,0.46,0.539l0.559,0.292v0.5c0,0.357,0.213,0.686,0.533,0.839
			c0.298,0.146,0.596,0.294,0.884,0.444l0.49,0.574l2.083,2.504c0.175,0.216,0.438,0.336,0.715,0.336h0.508l0.277,0.56
			c0.117,0.237,0.343,0.416,0.604,0.488l1.048,0.26l0.42,0.108c0.083,0.42,0.466,0.73,0.904,0.73h0.773
			c0.145,0.321,0.466,0.547,0.849,0.547h0.774c0.148,0.317,0.468,0.546,0.852,0.546h1.841c0.106,0.233,0.32,0.429,0.58,0.506
			c0.833,0.235,1.954,0.36,3.371,0.36c4.458,0,11.079-1.24,12.866-2.021c0.219-0.091,0.383-0.259,0.474-0.463h0.231
			c0.448,0,0.83-0.314,0.909-0.734l1.473-0.367c0.263-0.069,0.494-0.243,0.61-0.492l0.284-0.56h0.502
			c0.284,0,0.551-0.131,0.729-0.354l1.38-1.735l0.636-0.802l0,0l0.886-0.436c0.32-0.153,0.526-0.481,0.526-0.839v-0.582l0.846-0.556
			l0.36-0.236c0.17-0.113,0.3-0.28,0.365-0.482l0.548-1.622l0.324-0.982c0.314-0.044,0.584-0.247,0.715-0.545
			c2.251-5.104,2.248-12.429,2.236-19.503v-1.317v-31.764c0-0.517-0.414-0.932-0.931-0.932h-8.612c-0.522,0-0.934,0.415-0.934,0.932
			v30.149l0.009,3.033c0.051,9.605,0.076,15.403-5.118,20.522c-0.043,0.043-0.083,0.091-0.12,0.145l-0.477,0.718l-0.489,0.73
			c-1.521,0.933-5.703,2.25-9.004,2.25c-0.661,0-1.266-0.052-1.799-0.153c-0.087-0.415-0.461-0.728-0.909-0.728h-1.308
			c-0.147-0.32-0.473-0.541-0.848-0.541h-0.229c-0.15-0.32-0.474-0.544-0.856-0.544h-0.229c-0.062-0.131-0.159-0.255-0.284-0.35
			c-0.786-0.598-1.099-0.818-1.961-1.084c-0.278-0.903-0.496-1.202-1.092-1.966c-0.084-0.121-0.211-0.212-0.347-0.274v-0.229
			c0-0.36-0.196-0.679-0.513-0.839l-0.355-0.179l-0.204-0.103v-1.034c0-0.382-0.23-0.702-0.548-0.854v-0.23
			c0-0.412-0.272-0.766-0.647-0.884l-0.159-1.255l-0.281-2.279c-0.039-0.329-0.251-0.599-0.534-0.729v-43.308
			C449.93,468.925,449.509,468.502,448.998,468.502L448.998,468.502z"/>
	</g>
	<g>
		<path fill="#FFFFFF" stroke="#CED5DC" stroke-width="0.9318" stroke-linejoin="round" stroke-miterlimit="10" d="M516.272,533.97
			c-0.255,0-0.468-0.207-0.468-0.464v-26.988h-0.079c-0.219,0-0.393-0.146-0.451-0.354l-0.491-1.946l-0.565-0.284
			c-0.152-0.072-0.567-0.392-0.567-0.567v-0.612h-0.078c-0.256,0-0.467-0.207-0.467-0.465v-1.076l-0.939-0.743l-0.102-1.107
			l-0.856-0.429c-0.12-0.062-0.214-0.168-0.236-0.301l-0.451-1.794h-0.176c-0.257,0-0.465-0.214-0.465-0.465v-1.078l-0.94-0.745
			l-0.106-1.1l-0.853-0.429c-0.161-0.082-0.256-0.237-0.256-0.416v-0.608h-0.076c-0.252,0-0.465-0.207-0.465-0.465v-1.074
			l-0.939-0.742l-0.105-1.106l-0.845-0.423c-0.16-0.077-0.262-0.236-0.262-0.415v-0.633h-0.081c-0.254,0-0.467-0.215-0.467-0.465
			v-1.079l-0.944-0.746l-0.099-1.104l-0.856-0.429c-0.153-0.08-0.248-0.241-0.248-0.415v-0.612h-0.08
			c-0.261,0-0.465-0.207-0.465-0.465v-0.604h-0.077c-0.258,0-0.465-0.208-0.465-0.466v-1.078l-0.936-0.756l-0.105-1.092
			l-0.854-0.423l-0.904-2.29l-0.295-0.885h-0.207c-0.254,0-0.467-0.214-0.467-0.466v-0.793l-0.814-0.399
			c-0.168-0.082-0.27-0.241-0.27-0.42v-0.61h-0.068c-0.201,0-0.384-0.128-0.44-0.317l-0.543-1.624
			c-0.047-0.138-0.025-0.298,0.062-0.418c0.091-0.12,0.232-0.193,0.386-0.193h9.694c0.192,0,0.359,0.109,0.428,0.284
			c0.375,0.87,0.894,1.718,1.396,2.512c0.253,0.415,0.511,0.822,0.727,1.208l0.051,1.009l0.837,0.412l1.188,3.184h0.218
			c0.255,0,0.465,0.215,0.465,0.467v0.607h0.077c0.212,0,0.397,0.146,0.448,0.356l0.459,1.799h0.173c0.213,0,0.395,0.146,0.452,0.35
			l0.46,1.805h0.17c0.259,0,0.465,0.207,0.465,0.466v0.604h0.077c0.258,0,0.468,0.216,0.468,0.467v0.604h0.079
			c0.256,0,0.466,0.216,0.466,0.466v0.612h0.073c0.259,0,0.466,0.215,0.466,0.466v0.612h0.08c0.201,0,0.378,0.13,0.437,0.319
			l0.979,2.913h0.204c0.258,0,0.465,0.21,0.465,0.465v1.076c0.244,0.344,0.558,0.894,0.886,1.464
			c0.949,1.652,1.928,3.363,2.562,5.358c1.085-1.102,1.602-2.497,2.147-3.968c0.319-0.868,0.648-1.748,1.063-2.519
			c0.079-0.152,0.24-0.248,0.408-0.248h0.076v-0.609c0-0.259,0.215-0.467,0.466-0.467h0.076v-0.612c0-0.255,0.207-0.465,0.466-0.465
			h0.077v-0.608c0-0.258,0.207-0.465,0.466-0.465h0.179l0.45-1.802c0.058-0.212,0.24-0.354,0.451-0.354h0.073v-0.625
			c0-0.26,0.215-0.468,0.466-0.468h0.081v-0.607c0-0.255,0.209-0.465,0.464-0.465h0.08v-0.612c0-0.254,0.21-0.466,0.468-0.466h0.076
			v-0.611c0-0.255,0.207-0.465,0.466-0.465h0.207l0.969-2.905l0.78-0.543l0.34-0.175l0.492-1.939
			c0.396-0.786,0.819-1.472,1.236-2.155c1.01-1.655,2.051-3.37,2.512-5.379c0.057-0.212,0.229-0.365,0.457-0.365h9.688
			c0.146,0,0.272,0.069,0.365,0.183c0.094,0.109,0.123,0.254,0.094,0.393c-0.283,1.184-0.873,1.981-1.441,2.753
			c-0.262,0.37-0.539,0.721-0.77,1.142l0.072,0.849c0,0.175-0.101,0.334-0.256,0.411l-0.882,0.445l-0.491,1.938
			c-0.031,0.128-0.118,0.237-0.244,0.307l-1.066,0.542l-0.316,1.345l-0.538,1.625l-0.903,0.597l-0.402,0.204l-0.849,2.964
			l-1.049,0.651v0.815c0,0.258-0.212,0.465-0.467,0.465h-0.071v0.612c0,0.175-0.096,0.338-0.256,0.412l-1.077,0.545l-0.84,2.963
			l-1.115,0.684l-0.506,1.98c-0.028,0.131-0.119,0.238-0.239,0.298l-1.071,0.543l-0.372,1.544l-0.472,1.416l-0.876,0.59
			l-0.239,0.125l-0.493,1.942c-0.029,0.127-0.113,0.232-0.232,0.299l-1.082,0.546l-0.197,1.015l-0.651,1.941l-0.799,0.549
			l-0.244,0.123v0.79c0,0.256-0.216,0.468-0.468,0.468H525.4v27.523c0,0.258-0.211,0.466-0.467,0.466h-8.661V533.97z"/>
	</g>
	<g>
		<path fill="#FFFFFF" stroke="#CED5DC" stroke-width="0.9318" stroke-linejoin="round" stroke-miterlimit="10" d="M317.115,533.959
			c-0.257,0-0.465-0.207-0.465-0.465v-5.384c0-0.168,0.091-0.32,0.234-0.396c0.746-0.427,1.184-0.973,1.693-1.599
			c0.276-0.343,0.558-0.689,0.9-1.023l5.939-5.391l0.255-0.583l0.182-0.369l0.845-0.701l1.441-1.076l0.402-0.91
			c0.078-0.158,0.237-0.261,0.416-0.261h0.839l2.558-3.572l5.833-5.313v-0.871c0-0.145,0.066-0.283,0.181-0.371l1.972-1.478v-0.848
			c0-0.176,0.101-0.34,0.257-0.411l1.082-0.543l0.029-0.543l0.27-0.812c0.062-0.193,0.238-0.32,0.441-0.32h0.078v-0.611
			c0-0.175,0.102-0.338,0.259-0.412l0.819-0.414v-0.786c1.34-2.525,3.5-7.622,2.795-10.833h-0.182c-0.256,0-0.466-0.211-0.466-0.467
			v-2.227h-0.074c-0.22,0-0.41-0.159-0.459-0.378c-0.186-0.896-1.617-3.729-1.984-4.027l-0.789,0.097
			c-0.179,0-0.338-0.097-0.416-0.264l-0.539-1.069c-0.159-0.029-0.361-0.062-0.592-0.095c-0.471-0.079-0.879-0.19-1.492-0.877
			c-0.252,0.046-0.558,0.068-0.893,0.068c-0.54,0-1.156-0.051-1.771-0.09c-1.241-0.091-2.483-0.202-3.695-0.202
			c-1.874,0-3.368,0.241-4.674,0.766v0.233c0,0.203-0.124,0.386-0.316,0.44l-3.227,1.074l-0.276,0.847
			c-0.078,0.158-0.239,0.255-0.413,0.255h-0.825l-0.939,1.413c-0.078,0.105-0.206,0.189-0.342,0.207c-0.017,0-0.031,0-0.044,0
			c-0.125,0-0.243-0.051-0.33-0.131l-0.54-0.547c-0.777-0.698-0.861-1.121-0.895-1.681c-0.014-0.24-0.025-0.496-0.167-0.874h-0.228
			c-0.203,0-0.381-0.124-0.444-0.312l-1.068-3.231c-0.072-0.213,0.017-0.438,0.211-0.551c0.294-0.164,0.439-0.368,0.596-0.579
			c0.124-0.167,0.25-0.349,0.444-0.473l1.039-0.065l0.428-0.845c0.078-0.152,0.237-0.251,0.413-0.251h0.611v-0.077
			c0-0.204,0.125-0.383,0.317-0.437l2.911-0.976v-0.208c0-0.229,0.163-0.42,0.387-0.457l2.837-0.474v-0.15
			c0-0.253,0.209-0.465,0.466-0.465h2.233v-0.08c0-0.211,0.136-0.386,0.338-0.451c0.73-0.204,1.7-0.313,2.874-0.313
			c2.39,0,5.255,0.444,6.546,0.858l2.008-0.021c0.255,0,0.466,0.211,0.466,0.466v0.079h1.151c0.257,0,0.466,0.204,0.466,0.467v0.175
			l1.801,0.451c0.208,0.051,0.35,0.229,0.35,0.451v0.073h0.613c0.155,0,0.3,0.08,0.385,0.207l1.079,1.612l3.686,3.145
			c0.101,0.08,0.16,0.227,0.16,0.354v0.61h0.075c0.256,0,0.465,0.216,0.465,0.466v0.612h0.079c0.187,0,0.354,0.105,0.424,0.273
			c0.572,1.302,2.333,8.617,1.633,11.083c-0.054,0.208-0.238,0.344-0.444,0.344h-0.075v2.757
			c-3.245,9.891-10.387,17.585-16.827,24.013c-0.812,0.817-1.807,1.682-2.849,2.585c-1.867,1.635-3.959,3.45-5.232,5.227h26.589
			c0.259,0,0.467,0.211,0.467,0.466v7.001c0,0.258-0.208,0.465-0.467,0.465H317.115z"/>
	</g>
	<g>
		<path fill="#FFFFFF" stroke="#CED5DC" stroke-width="0.9318" stroke-linejoin="round" stroke-miterlimit="10" d="M679.873,534.036
			v0.466c-8.191,0-12.813-2.017-16.486-7.193l-1.492-0.968c-0.127-0.079-0.209-0.232-0.209-0.386v-0.609h-0.079
			c-0.25,0-0.466-0.204-0.466-0.467v-0.613h-0.072c-0.259,0-0.467-0.204-0.467-0.464v-1.144h-0.08c-0.249,0-0.464-0.208-0.464-0.467
			v-1.617c-0.692-1.796-2.069-8.122-1.05-11.437c3.323-10.868,10.175-16.407,20.354-16.476l1.2-0.005
			c4.026,0,8.349,0.212,9.896,1.756c0.182,0.182,0.188,0.472,0.005,0.655c-0.533,0.548-0.888,2.049-0.941,3.987
			c-0.003,0.128-0.062,0.253-0.16,0.344c-0.084,0.076-0.193,0.108-0.307,0.108c-0.017,0-0.035,0-0.053,0
			c-1.306-0.153-2.461-0.466-3.583-0.772c-1.405-0.386-2.734-0.74-4.222-0.74c-0.924,0-1.827,0.138-2.774,0.423l-2.359,0.02v0.065
			c0,0.263-0.214,0.466-0.464,0.466h-1.157v0.081c0,0.204-0.128,0.378-0.321,0.444l-3.229,1.069l-1.395,1.995l-0.982,0.538v0.795
			c0,0.173-0.1,0.335-0.248,0.414l-0.826,0.415v0.789c0,0.259-0.215,0.468-0.466,0.468h-0.146l-0.477,2.838
			c-0.28,0.818-1.109,4.095-1.115,5.38h0.117c0.263,0,0.467,0.206,0.467,0.466v3.84h0.076c0.251,0,0.467,0.206,0.467,0.468v1.146
			h0.076c0.218,0,0.396,0.146,0.45,0.354l0.452,1.8h0.174c0.258,0,0.465,0.208,0.465,0.467v0.849l2.528,2.018l0.542,0.975h0.79
			c0.174,0,0.343,0.091,0.414,0.251l0.431,0.854l3.003,0.511c0.229,0.037,0.388,0.232,0.388,0.456v0.083h2.76
			c0.256,0,0.467,0.204,0.467,0.465v0.073h1.761v-0.073c0-0.261,0.207-0.465,0.467-0.465h3.837v-0.083
			c0-0.232,0.159-0.419,0.385-0.456c0,0,3.284-0.548,3.308-0.548c0.1,0,0.201,0.03,0.281,0.092c0.103,0.076,0.167,0.193,0.182,0.314
			l0.548,4.298c0.02,0.167-0.052,0.335-0.19,0.437c-0.103,0.076-0.193,0.138-0.255,0.183c-0.052,0.069-0.108,0.153-0.189,0.262
			c-0.08,0.103-0.211,0.176-0.342,0.181c-1.362,0.088-2.293,0.412-3.196,0.726c-0.334,0.116-0.669,0.229-1.012,0.339l-4.972,0.014
			L679.873,534.036z"/>
	</g>
	<g>
		<path fill="#FFFFFF" stroke="#CED5DC" stroke-width="0.9318" stroke-linejoin="round" stroke-miterlimit="10" d="M580.866,533.957
			c-0.252,0-0.466-0.213-0.466-0.468v-39.828c0-0.259,0.214-0.466,0.466-0.466h5.383c0.258,0,0.467,0.207,0.467,0.466v35.061h16.759
			c0.258,0,0.465,0.204,0.465,0.466v4.297c0,0.254-0.207,0.464-0.465,0.464L580.866,533.957L580.866,533.957z"/>
	</g>
	<g>
		<path fill="#FFFFFF" stroke="#CED5DC" stroke-width="0.9318" stroke-linejoin="round" stroke-miterlimit="10" d="M626.623,493.661
			c0,11.838,0,23.682,0,35.526c5.743,0,11.483,0,17.228,0c0,1.436,0,2.868,0,4.297c-7.534,0-15.075,0-22.603,0
			c0-13.279,0-26.559,0-39.838C623.038,493.661,624.829,493.661,626.623,493.661"/>
	</g>
	<g>
		<path fill="#FFFFFF" stroke="#CED5DC" stroke-width="0.9318" stroke-linejoin="round" stroke-miterlimit="10" d="M402.172,468.893
			c7.253,0,11.476,0.199,16.146,2.696c0.716,0.175,1.437,0.356,2.151,0.547c0.358,0.544,0.713,1.073,1.076,1.623
			c1.259,1.076,2.516,2.147,3.771,3.218c0,0.37,0,0.705,0,1.076c1.349,2.562,2.403,6.604,1.079,10.229c0,0.545,0,1.076,0,1.623
			c-1.813,4.138-5.538,7.309-9.697,9.144c0,0.188,0,0.363,0,0.539c7.389,0.713,14.97,10.304,11.859,19.905c0,0.718,0,1.438,0,2.156
			c-0.185,0-0.366,0-0.547,0c-0.179,0.718-0.356,1.438-0.539,2.151c-0.183,0-0.356,0-0.537,0c0,0.359,0,0.713,0,1.07
			c-0.368,0.182-0.722,0.367-1.079,0.544c0,0.365,0,0.715,0,1.078c-0.368,0.183-0.718,0.363-1.077,0.545
			c-0.546,0.711-1.077,1.437-1.623,2.156c-0.364,0-0.708,0-1.073,0c-0.182,0.357-0.36,0.711-0.543,1.07
			c-0.718,0.182-1.441,0.363-2.15,0.539c0,0.189,0,0.366,0,0.545c-0.359,0-0.717,0-1.079,0c0,0.183,0,0.363,0,0.542
			c-0.542,0-1.071,0-1.626,0c0,0.175,0,0.36,0,0.543c-3.309,1.296-7.718,1.653-12.335,1.653c-5.195,0-10.648-0.46-15.11-0.578
			c0-21.178,0-42.345,0-63.515c2.153-0.183,4.302-0.36,6.449-0.546c0-0.182,0-0.363,0-0.539
			C397.863,468.893,400.02,468.893,402.172,468.893 M403.179,496.473c5.94,0,10.046-0.715,12.983-4.958
			c0.361-0.185,0.719-0.365,1.078-0.54c0.63-1.026,1.761-5.973,1.078-8.073c-0.179,0-0.369,0-0.543,0
			c-0.187-0.902-0.365-1.798-0.547-2.701c-1.739-1.019-2.923-2.929-4.85-3.777c-1.826-0.803-4.082-1.038-6.433-1.038
			c-2.936,0-6.014,0.383-8.635,0.505c0,6.815,0,13.636,0,20.46C399.45,496.413,401.395,496.473,403.179,496.473 M404.314,527.324
			c4.249,0,8.263-0.501,11.298-2.445c0.189-0.357,0.368-0.707,0.543-1.069c0.368,0,0.717,0,1.076,0
			c0.182-0.539,0.36-1.078,0.544-1.618c0.364-0.181,0.713-0.363,1.077-0.541c0.633-0.966,0.014-1.206,1.074-2.152
			c0.157-2.649,0.789-4.051-0.004-6.457c0-0.722,0-1.438,0-2.154c-2.812-6.953-10.855-8.087-20.626-8.087
			c-0.657,0-1.316,0.005-1.972,0.014c0,8.073,0,16.146,0,24.22C399.641,527.178,402.014,527.324,404.314,527.324"/>
	</g>
	<g>
		<path fill="#FFFFFF" stroke="#CED5DC" stroke-width="0.9318" stroke-linejoin="round" stroke-miterlimit="10" d="M609.399,534.501
			c-0.163,0-0.313-0.083-0.397-0.232c-0.087-0.153-0.229-0.335-0.383-0.545c-0.854-1.174-2.435-3.368-1.254-5.817
			c1.316-1.179,1.58-1.562,1.63-1.653c0.083-0.138,0.236-0.233,0.404-0.233c1.7,0,2.66,0.193,3.761,0.417l0.632,0.122
			c0.168,0.037,0.307,0.153,0.364,0.314l0.547,1.624c0.403,0.344,0.639,1.255,0.542,2.386c-0.096,1.085-0.527,2.473-1.256,2.992
			l-0.88,0.059v0.102c0,0.251-0.213,0.466-0.467,0.466H609.399z"/>
	</g>
	<g>
		<path fill="#FFFFFF" stroke="#CED5DC" stroke-width="0.9318" stroke-linejoin="round" stroke-miterlimit="10" d="M649.771,534.501
			c-0.165,0-0.313-0.083-0.395-0.232c-0.091-0.149-0.229-0.335-0.384-0.545c-0.854-1.174-2.433-3.368-1.254-5.817
			c1.254-1.144,1.547-1.507,1.631-1.653c0.08-0.138,0.233-0.233,0.401-0.233c1.699,0,2.655,0.193,3.763,0.417l0.633,0.122
			c0.168,0.037,0.3,0.153,0.36,0.314l0.536,1.629c0.408,0.335,0.646,1.246,0.545,2.381c-0.086,1.073-0.522,2.473-1.251,2.992
			l-0.881,0.059v0.102c0,0.251-0.212,0.466-0.465,0.466H649.771z"/>
	</g>
	<g>
		<path fill="#FFFFFF" stroke="#CED5DC" stroke-width="0.9318" stroke-linejoin="round" stroke-miterlimit="10" d="M696.603,534.501
			c-0.169,0-0.313-0.083-0.397-0.232c-0.092-0.153-0.23-0.335-0.383-0.545c-0.855-1.177-2.438-3.368-1.26-5.817
			c1.314-1.179,1.584-1.566,1.631-1.653c0.08-0.138,0.233-0.233,0.394-0.233c1.703,0,2.708,0.212,3.763,0.417l0.634,0.13
			c0.164,0.029,0.299,0.146,0.354,0.307l0.544,1.629c0.405,0.339,0.646,1.25,0.544,2.381c-0.088,1.085-0.531,2.483-1.263,2.999
			l-0.868,0.055v0.099c0,0.263-0.216,0.466-0.468,0.466H696.603L696.603,534.501z"/>
	</g>
	<path fill="#FFFFFF" stroke="#CED5DC" stroke-width="0.9318" stroke-linejoin="round" stroke-miterlimit="10" d="M312.662,307.561
		c0-2.147,0-4.303,0-6.457c-0.182-3.764-0.366-7.533-0.543-11.3c-1.074-0.325-0.463,0.078-1.079-0.545
		c-1.454-1.636,0.479-5.271-0.539-7.533c-0.36-0.188-0.716-0.362-1.074-0.544c0-0.362,0-0.712,0-1.077c-0.179,0-0.364,0-0.544,0
		c0-0.362,0-0.712,0-1.078c-0.182,0-0.361,0-0.541,0c0-2.329,0-4.658,0-6.995c-0.719-0.358-1.435-0.712-2.149-1.078
		c0-2.329,0-4.659,0-6.996c-0.184,0-0.363,0-0.544,0c0.185-0.355,0.363-0.711,0.544-1.077c-0.184,0-0.363,0-0.544,0
		c-0.18-1.435-0.362-2.87-0.538-4.3c-0.179,0-0.362,0-0.544,0c-0.362-1.077-0.712-2.156-1.075-3.229
		c-0.714-0.179-1.443-0.357-2.154-0.545c0,0.184,0,0.362,0,0.545c-0.179,0-0.361,0-0.541,0c0-0.179,0-0.357,0-0.545
		c-1.006-0.167-1.823,0.689-2.154,0.545c0-0.179,0-0.357,0-0.545c-3.701-0.021-2.885,0.604-3.768,3.232c-0.363,0-0.711,0-1.079,0
		c-0.54,4.484-1.076,8.967-1.616,13.455c-0.716,0.181-1.436,0.361-2.15,0.537c0,2.695,0,5.381,0,8.073
		c-0.543,0.365-1.078,0.715-1.622,1.077c0,0.716,0,1.434,0,2.155c-0.181,0-0.359,0-0.541,0c0.181,1.077,0.36,2.148,0.541,3.227
		c-0.181,0-0.359,0-0.541,0c0,1.073,0,2.151,0,3.229c-0.175,0-0.359,0-0.538,0c0,0.36,0,0.712,0,1.068c-0.186,0-0.365,0-0.543,0
		c-0.179,1.798-0.362,3.598-0.541,5.388c-0.184,0-0.365,0-0.543,0c0,2.328,0,4.665,0,6.995c0,5.927,0,11.845,0,17.769
		c0,0.715,0,1.435,0,2.149c0.178,0,0.36,0,0.543,0c0,0.184,0,0.362,0,0.547c-1.298,21.46-0.388,46.417-0.543,67.82
		c-2.041-0.368-11.448-1.373-13.996-0.543c0,0.183,0,0.368,0,0.543c-0.541,0-1.078,0-1.619,0c-0.184,0.368-0.362,0.71-0.541,1.077
		c-0.362,0-0.714,0-1.076,0c0,0.183,0,0.361,0,0.542c-0.541,0-1.079,0-1.619,0c0,0.175,0,0.357,0,0.543c-5.919,0-11.844,0-17.765,0
		c-0.182-4.853-0.364-9.7-0.544-14.528c-0.179,0-0.36,0-0.538,0c-0.534-1.906,0.527-4.172-0.543-5.389c0-0.174,0-0.355,0-0.54
		c-0.182,0-0.361,0-0.541,0c0,0.185,0,0.366,0,0.54c-0.544,0.185-1.079,0.367-1.62,0.545c0,0.716,0,1.439,0,2.151
		c-5.331-0.004-11.67-0.261-16.147,0.541c0.045-3.103,0.41-9.24,0-10.766c-0.183,0-0.361,0-0.54,0c0-0.89,0-1.793,0-2.689
		c-0.183,0-0.362,0-0.544,0c0-0.366,0-0.722,0-1.077c-0.18,0-0.361,0-0.54,0c-0.559,1.159-0.056,0.983-1.078,1.617
		c-0.657-1.476-1.782-4.23-1.073-6.999c0.179,0,0.359,0,0.541,0c-0.182-0.547-0.362-1.074-0.541-1.622c0.179,0,0.359,0,0.541,0
		c-0.182-2.514-0.362-5.025-0.541-7.529c-0.362,0-0.719,0-1.079,0c0,0.54,0,1.073,0,1.616c-0.661-0.741-0.949-7.935-0.543-9.69
		c0.041-0.159,0.734-0.152,0.543-1.076c-0.181,0-0.36,0-0.543,0c-0.179-0.903-0.361-1.793-0.541-2.696
		c-0.897-0.719-1.789-1.442-2.69-2.154c0.179-1.075,0.357-2.146,0.536-3.223c-0.179,0-0.357,0-0.536,0
		c-0.365-3.049-0.721-6.106-1.076-9.15c-0.367,0-0.718,0-1.078,0c-0.18,2.146-0.362,4.3-0.543,6.454c-0.181,0-0.362,0-0.538,0
		c0,0.712,0,1.437,0,2.151c-0.188,0-0.361,0-0.543,0c0,1.435,0,2.874,0,4.305c-0.545,0.361-1.075,0.714-1.622,1.077
		c-0.175,0.712-0.358,1.436-0.537,2.147c-0.182,0-0.366,0-0.544,0c0,3.955,0,7.896,0,11.845c-0.179,0-0.362,0-0.541,0
		c0-0.541,0-1.078,0-1.616c-0.182,0-0.367,0-0.541,0c-0.917,2.373-1.301,5.534-1.081,9.149c0.183,0.54,0.362,1.073,0.543,1.617
		c-0.184,0-0.363,0-0.543,0c-0.232,2.4,1.515,2.941-0.537,4.85c-0.463,0.604,0.071,0.079-0.544,0.541
		c-0.176-0.541-0.357-1.077-0.537-1.617c-0.363,0-0.715,0-1.076,0c0,4.662,0,9.329,0,13.991c-2.783,0.033-13.539,0.355-13.993,0
		c-3.515-0.182-2.032-1.095-3.774-2.694c-0.604-0.604,0.006-0.231-1.078-0.541c-0.497,1.305-0.575,3.339-0.538,5.378
		c-0.717,0.184-1.438,0.365-2.155,0.546c0.093,2.824,0.764,4.501,1.619,6.455c0,0.179,0,0.357,0,0.542c-0.181,0-0.358,0-0.544,0
		c0.533,2.526,0.494,4.966,0,7.532c-6.099,0-12.192,0-18.298,0c0-0.187,0-0.368,0-0.543c-0.36,0-0.711,0-1.077,0
		c0-0.186,0-0.363,0-0.542c-0.36,0-0.712,0-1.075,0c-1.388-0.732-2.408-1.758-4.303-2.151c-1.241-7.098-1.078-16.207-1.078-24.768
		c0-3.59,0-7.178,0-10.77c-0.179,0-0.36,0-0.543,0l0.543-0.54c-0.179-0.539-0.36-1.071-0.543-1.616c0.183,0,0.365,0,0.543,0
		c0-5.924,0-11.847,0-17.765c-0.565-2.182-0.573-11.595-0.543-17.765c-2.775-0.168-2.608-1.152-4.301-2.155
		c-0.351-1.673-0.917-2.407-1.074-4.304c-5.453-0.996-15.535-0.622-19.377,0c-0.027,4.265-2.062,6.112-4.848,7.536
		c0,17.04,0,34.09,0,51.134c0,5.822-0.685,19.366,0.097,23.024c-1.185,0.451-2.493,0.164-4.404,0.12c0-15.965,0-31.933,0-47.903
		c0-6.419-0.653-18.717,0-21.533c0-8.431,0-16.863,0-25.298c-0.184-1.076-0.362-2.149-0.544-3.227
		c0.719-4.123,1.441-8.257,2.153-12.378c-1.967,0-3.946,0-5.923,0c-0.014-1.92,0.086-3.651,0.545-4.848c-0.178,0-0.362,0-0.545,0
		c0-0.181,0-0.361,0-0.543c-0.711,0-1.434,0-2.15,0c-0.541-0.712-1.076-1.435-1.617-2.155c-0.18,0-0.358,0-0.543,0
		c0-0.356,0-0.711,0-1.068c-1.254-1.077-2.514-2.155-3.77-3.232c-1.128-1.558-0.839-2.14-2.691-3.231c0-0.178,0-0.356,0-0.541
		c-0.182,0-0.361,0-0.544,0c-2.87,3.406-5.741,6.814-8.614,10.229c-0.539,0-1.075,0-1.616,0c0,0.174,0,0.358,0,0.541
		c-0.184,0-0.366,0-0.544,0c0,1.617,0,3.228,0,4.85c-1.973,0-3.947,0-5.92,0c0.676,1.847,0.554,6.865,1.614,8.073
		c0,14.173,0,28.341,0,42.517c0,4.844,0,9.694,0,14.532c-1.434,0.54-2.873,1.077-4.301,1.618c-0.902,4.32-2.24,8.997-2.151,14.528
		c-0.544,0-1.077,0-1.622,0c0-0.182,0-0.356,0-0.541c-0.178,0-0.356,0-0.541,0c0.184-0.361,0.362-0.719,0.541-1.077
		c-0.178,0-0.356,0-0.541,0c0-1.618,0-3.223,0-4.845c-0.178,0-0.356,0-0.544,0c0-0.544,0-1.077,0-1.621
		c-0.356-0.175-0.708-0.358-1.067-0.541c0-0.711,0-1.436,0-2.147c-0.188,0-0.367,0-0.547,0c0.18-4.666,0.359-9.337,0.547-13.999
		c-0.188,0-0.367,0-0.547,0c0-1.256,0-2.512,0-3.769c-0.182,0-0.36,0-0.538,0c0-0.543,0-1.076,0-1.62c-0.188,0-0.366,0-0.544,0
		c0-0.542,0-1.07,0-1.615c-0.184,0-0.359,0-0.541,0c0-1.438,0-2.874,0-4.304c-0.362-0.185-0.717-0.361-1.077-0.542
		c0-0.712,0-1.441,0-2.154c-0.18,0-0.362,0-0.544,0c-0.747-1.636-0.907-3.183-2.151-4.302c-0.455-0.609,0.075-0.085-0.541-0.543
		c-1.212,2.635-2.835,5.757-3.767,8.617c0,1.436,0,2.869,0,4.301c-0.183,0-0.362,0-0.546,0c0,0.365,0,0.713,0,1.079
		c-0.356,0.182-0.711,0.363-1.075,0.543c0,6.997,0,14,0,20.996c-0.541,0.361-1.074,0.712-1.614,1.077
		c-0.185,2.329-0.363,4.666-0.545,6.996c-2.151,0.182-4.302,0.362-6.456,0.541c0,12.027,0,24.041,0,36.064
		c-1.5,0.345-2.571,1.226-3.769,1.619c-3.411,0-6.818,0-10.229,0c0-2.872,0-5.736,0-8.616c1.149-4.583,0.54-16.385,0.54-23.683
		c0-3.529,0.21-8.096-0.54-10.768c-1.266-4.569,2.084-9.553-0.541-12.382c-0.181-0.541-0.36-1.07-0.538-1.61
		c-3.054,0-6.102,0-9.151,0c0-0.187,0-0.365,0-0.546c-0.543,0-1.077,0-1.617,0c0-0.181,0-0.355,0-0.538
		c-1.76-0.561-6.936,0.096-8.077,0.538c0,0.185,0,0.362,0,0.546c-0.359,0-0.712,0-1.074,0c0,0.175,0,0.357,0,0.54
		c-0.545-0.183-1.079-0.365-1.619-0.54c0-0.187,0-0.365,0-0.546c-1.259,0.185-2.515,0.362-3.771,0.546c0,0.175,0,0.357,0,0.54
		c-0.541,0.18-1.074,0.357-1.615,0.536c0,6.289,0,12.562,0,18.846c-1.077,0-2.155,0-3.228,0c0,13.451,0,26.916,0,40.369
		c-5.33-0.021-16.493-0.925-20.455,0.546c0,6.632,0,13.278,0,19.919c0,3.333-0.37,7.759,0.544,10.224c103.689,0,207.416,0,311.12,0
		c0-42.696,0-85.407,0-128.107C313.024,307.561,312.84,307.561,312.662,307.561z M252.037,405.612h-2.764v-0.084
		c-0.043,0-0.078,0-0.116,0c-0.005-1.336,0.038-2.668,0.116-3.913v-3.382h0.383c0-0.007,0-0.007,0-0.011h0.777
		c0.003,0.004,0.017,0.004,0.025,0.011h1.583L252.037,405.612L252.037,405.612z M257.261,405.612h-2.915v-7.39h1.65
		c0.011,0.004,0.027,0.004,0.041,0.011h1.223v0.805c0.011,0.131,0.022,0.266,0.032,0.4v6.09c-0.009,0-0.021,0-0.032,0V405.612
		L257.261,405.612z"/>
	<path fill="#FFFFFF" stroke="#CED5DC" stroke-width="0.9318" stroke-linejoin="round" stroke-miterlimit="10" d="M69.944,479.48
		c-0.075-0.171-0.238-0.275-0.424-0.275h-0.075v-0.612c0-0.256-0.208-0.466-0.465-0.466h-0.1l-0.045-0.854
		c-3.768-5.996-10.709-8.791-21.842-8.791c-4.854,0-9.964,0.494-15.208,1.04c-0.239,0.029-0.417,0.226-0.417,0.463V533.5
		c0,0.253,0.208,0.467,0.465,0.467h8.064c0.26,0,0.467-0.214,0.467-0.467v-25.278c2.18,0.378,4.349,0.568,6.453,0.568
		c7.797,0,14.632-2.578,19.181-7.2l1.617-1.084c0.126-0.085,0.205-0.229,0.205-0.387l0.053-0.811l0.775-0.39
		c0.153-0.076,0.25-0.237,0.25-0.416v-0.604h0.078c0.257,0,0.466-0.21,0.466-0.465v-0.608h0.075c0.256,0,0.465-0.216,0.465-0.465
		v-1.155h0.075c0.256,0,0.466-0.21,0.466-0.465v-1.689h0.078c0.207,0,0.387-0.131,0.448-0.335
		C71.928,489.803,70.661,481.111,69.944,479.48z M62.244,490.422c-0.473,2.425-1.401,4.928-3.126,6.741
		c-1.394,1.469-3.296,2.445-5.17,3.138c-2.661,0.981-5.442,1.148-8.251,1.078c-0.875-0.022-1.76-0.042-2.636-0.124
		c-0.316-0.029-2.229-0.284-2.22-0.597v-24.763c-0.009,0.389,4.065-0.303,4.443-0.391c2.094-0.466,4.495,0.059,6.585,0.346
		c0.954,0.127,1.855,0.383,2.776,0.652c0.824,0.239,1.831,0.371,2.428,1.047c0.58,0.659,0.651,1.166,1.657,1.056
		c1.05,1.552,2.255,3.087,3.027,4.813C62.741,485.61,62.699,488.104,62.244,490.422z"/>
</g>
</svg>
